<?xml version="1.0" encoding="UTF-8"?>
<svg version="1.1" xmlns="http://www.w3.org/2000/svg" width="600" height="600">
<path d="M0 0 C0 0.66 0 1.32 0 2 C0.72832031 2.10699219 1.45664062 2.21398437 2.20703125 2.32421875 C5.21135413 3.05113883 7.13004257 4.09739697 9.6875 5.8125 C10.83798828 6.56466797 10.83798828 6.56466797 12.01171875 7.33203125 C14.10479071 9.08790891 14.98253798 10.49171127 16 13 C16.66 13 17.32 13 18 13 C23.61568957 23.71332659 25.58551786 33.23698528 22 45 C21.64550781 45.69222656 21.29101562 46.38445312 20.92578125 47.09765625 C19.78120662 49.09697946 19.78120662 49.09697946 20 52 C21.35504381 53.07708611 22.71230523 54.1514555 24.078125 55.21484375 C29.64976742 60.39012949 34.35738869 67.33922503 38 74 C38 74.66 38 75.32 38 76 C38.66 76.33 39.32 76.66 40 77 C43 83.23076923 43 83.23076923 43 87 C43.66 87.33 44.32 87.66 45 88 C44.67 88.66 44.34 89.32 44 90 C44.66 90.33 45.32 90.66 46 91 C46.59765625 93.51171875 46.59765625 93.51171875 47.0625 96.6875 C47.29646484 98.24017578 47.29646484 98.24017578 47.53515625 99.82421875 C47.84737472 101.95727438 48.10187949 104.09950465 48.30078125 106.24609375 C48.71862452 109.08231866 48.71862452 109.08231866 50.8203125 110.3984375 C51.58085937 110.72070312 52.34140625 111.04296875 53.125 111.375 C61.73989669 115.68244835 66.54793672 123.18850774 70 132 C74.00312933 144.42762537 71.08797676 155.35961038 66 167 C65.34 167 64.68 167 64 167 C63.79375 167.556875 63.5875 168.11375 63.375 168.6875 C61.4824414 171.87043946 58.88455209 173.71639626 56 176 C55.34 176.66 54.68 177.32 54 178 C47.44180377 181.20557574 40.19227858 182.1516021 33 181 C30.02638914 178.78436838 28.63040207 177.26080415 27 174 C26.91921671 172.20522354 26.90331798 170.40737168 26.91821289 168.61083984 C26.9247438 167.48140961 26.93127472 166.35197937 26.93800354 165.18832397 C26.94943893 163.95828644 26.96087433 162.7282489 26.97265625 161.4609375 C26.9853213 158.85156392 26.99768083 156.24218884 27.00976562 153.6328125 C27.03331998 149.52339142 27.06168107 145.41403302 27.09594727 141.3046875 C27.46021618 102.61621158 27.46021618 102.61621158 8.67578125 69.62109375 C7.84626953 68.81865234 7.84626953 68.81865234 7 68 C6.45214844 67.43410156 5.90429688 66.86820312 5.33984375 66.28515625 C1.17518715 63.99772383 -3.46197022 64.88559851 -8.09375 65.1171875 C-13.79422301 65.28934944 -17.76625197 64.29424571 -23 62 C-24.25865856 67.2653883 -24.35989722 72.55311678 -24.60546875 77.9375 C-24.76963672 81.16424981 -24.9728456 83.91853681 -26 87 C-25.34 87.33 -24.68 87.66 -24 88 C-24.66 88 -25.32 88 -26 88 C-26 93.28 -26 98.56 -26 104 C-25.13117188 103.07316406 -24.26234375 102.14632812 -23.3671875 101.19140625 C-22.20380683 99.98111506 -21.03970618 98.77151566 -19.875 97.5625 C-19.02035156 96.64500977 -19.02035156 96.64500977 -18.1484375 95.70898438 C-15.38177364 92.86372211 -13.59737856 91.1907293 -9.7578125 89.96484375 C-7 90 -7 90 -4 92 C-4 92.99 -4 93.98 -4 95 C-3.34 95.33 -2.68 95.66 -2 96 C-1.97659553 105.30298316 -1.95894426 114.60595583 -1.94818783 123.90896225 C-1.94301941 128.23098558 -1.93603491 132.55298844 -1.92456055 136.875 C-1.83922327 170.00477845 -1.83922327 170.00477845 -2.37890625 182.140625 C-2.42482155 183.30123444 -2.42482155 183.30123444 -2.47166443 184.48529053 C-2.83883119 191.08592244 -2.83883119 191.08592244 -5 194 C-8.3125 195.0625 -8.3125 195.0625 -12 195 C-14.4375 193.0625 -14.4375 193.0625 -17 190 C-18.34333385 188.63508649 -19.69830288 187.28156136 -21.0625 185.9375 C-23.70833333 183.29166667 -26.35416667 180.64583333 -29 178 C-30.20599981 180.41199962 -30.32865715 182.64977221 -30.59423828 185.3059082 C-32.04523195 199.47663046 -36.27059105 212.02406479 -47.75 221.375 C-57.32079062 227.90053906 -68.46116717 231.15064204 -80 230 C-90.62278339 227.60439808 -97.99106035 222.92728828 -104.7734375 214.515625 C-106.06677081 212.86334101 -106.06677081 212.86334101 -108 211 C-112.89179087 201.6806028 -113.71276281 190.81903697 -111.1640625 180.671875 C-109.72444714 176.62363332 -107.94763119 172.82507747 -106 169 C-106.81404297 168.11248047 -106.81404297 168.11248047 -107.64453125 167.20703125 C-108.71767578 166.02173828 -108.71767578 166.02173828 -109.8125 164.8125 C-110.52019531 164.03519531 -111.22789062 163.25789062 -111.95703125 162.45703125 C-113.93521466 160.07791583 -115.43819457 157.66267689 -117 155 C-117.99 154.01 -117.99 154.01 -119 153 C-120.08555801 150.40560274 -121.09694325 147.82574874 -122.0625 145.1875 C-122.33126953 144.47529297 -122.60003906 143.76308594 -122.87695312 143.02929688 C-125.21144857 136.73605604 -126.12577483 131.45790635 -126.0625 124.6875 C-126.05347656 123.43324219 -126.04445312 122.17898438 -126.03515625 120.88671875 C-126.02355469 119.93410156 -126.01195312 118.98148437 -126 118 C-126.55171875 118.19722656 -127.1034375 118.39445312 -127.671875 118.59765625 C-133.61113053 119.62407122 -140.49879883 115.63050889 -145.3125 112.375 C-150.50082106 108.20085693 -153.91151538 102.26545385 -156 96 C-156.78362851 86.76437829 -156.77195888 78.67740072 -151 71 C-146.83730912 66.41847575 -143.04360268 63.62145438 -137 62 C-136.67 61.34 -136.34 60.68 -136 60 C-125.40172636 59.49128287 -116.99241233 59.79256156 -108.0625 66.0625 C-106.34128979 67.67939444 -104.66476225 69.32575193 -103 71 C-102.68289062 69.9275 -102.36578125 68.855 -102.0390625 67.75 C-98.91670009 57.23969011 -95.72126669 46.75141426 -92.47796631 36.27783203 C-92.03640752 34.84935714 -91.59665156 33.42032366 -91.15875244 31.99072266 C-90.53408288 29.95314535 -89.9026118 27.91778989 -89.26953125 25.8828125 C-88.90448486 24.70090332 -88.53943848 23.51899414 -88.16333008 22.30126953 C-85.07509314 13.53754657 -85.07509314 13.53754657 -81.625 11.8125 C-79 12 -79 12 -76.3359375 14.04296875 C-73.31553225 17.86645834 -73.62265838 19.70776147 -74 24.5 C-74.5012261 35.56757981 -70.14410766 44.25488658 -65.015625 53.87890625 C-61.89754365 60.39089923 -61.79371075 68.85562009 -63.7890625 75.7109375 C-64.74318294 77.90322951 -65.78503602 79.94254275 -67 82 C-67.474375 82.845625 -67.94875 83.69125 -68.4375 84.5625 C-70 86 -70 86 -72.6875 86.25 C-73.450625 86.1675 -74.21375 86.085 -75 86 C-74.38273804 80.32644329 -73.72054048 74.66138945 -73 69 C-73.66 68.67 -74.32 68.34 -75 68 C-75.12375 67.278125 -75.2475 66.55625 -75.375 65.8125 C-76.16361931 62.26371309 -77.95337572 59.97090622 -80 57 C-80 56.34 -80 55.68 -80 55 C-81.32 55 -82.64 55 -84 55 C-84.27674561 55.92111572 -84.55349121 56.84223145 -84.83862305 57.79125977 C-85.88943207 61.2865688 -86.94321987 64.78097441 -87.99780273 68.27514648 C-88.44943215 69.77295747 -88.90030749 71.27099608 -89.3503418 72.76928711 C-91.71743813 80.64814742 -94.12136809 88.51274391 -96.69140625 96.328125 C-97.08142822 97.51438477 -97.4714502 98.70064453 -97.87329102 99.92285156 C-99.22272711 103.60828872 -100.93257232 106.67734838 -103 110 C-106.17459769 119.7953047 -104.00570108 131.63337861 -99.7109375 140.73046875 C-96.71694659 146.02198745 -93.19826949 151.64923909 -88 155 C-84.63147485 155.0565109 -84.63147485 155.0565109 -81 154 C-74.79126596 153.49092374 -69.18563394 154.05061089 -63.1328125 155.515625 C-61.9792627 155.79180664 -60.82571289 156.06798828 -59.63720703 156.35253906 C-58.76692871 156.56620117 -57.89665039 156.77986328 -57 157 C-57.01047363 156.03175293 -57.02094727 155.06350586 -57.03173828 154.06591797 C-57.06809371 150.45413956 -57.09095673 146.84237716 -57.10986328 143.23046875 C-57.11988557 141.67087071 -57.13350705 140.1112913 -57.15087891 138.55175781 C-57.1752941 136.30268746 -57.1865209 134.05386678 -57.1953125 131.8046875 C-57.20563507 131.1138205 -57.21595764 130.42295349 -57.22659302 129.71115112 C-57.22757315 125.42739838 -56.56605649 121.98287722 -55 118 C-51.535 117.505 -51.535 117.505 -48 117 C-47.96241577 116.1181604 -47.96241577 116.1181604 -47.92407227 115.21850586 C-47.08908249 95.8016801 -47.08908249 95.8016801 -46.4375 86.875 C-46.03472052 81.29805329 -45.94325831 75.78476657 -46.0625 70.1953125 C-46 68 -46 68 -45 67 C-44.78982984 64.69104731 -44.63160059 62.37726031 -44.5 60.0625 C-44.11021814 53.22043628 -44.11021814 53.22043628 -43 51 C-44.65 51 -46.3 51 -48 51 C-48.495 51.99 -48.495 51.99 -49 53 C-51.97 53 -54.94 53 -58 53 C-60.64 47.06 -63.28 41.12 -66 35 C-60.375 31.625 -60.375 31.625 -56 32 C-55.67 31.34 -55.34 30.68 -55 30 C-50.71 30 -46.42 30 -42 30 C-41.62875 28.35 -41.2575 26.7 -40.875 25 C-39.30997023 19.25663603 -36.93757411 15.39963637 -33 11 C-32.21625 10.0925 -31.4325 9.185 -30.625 8.25 C-21.61249289 0.52499391 -11.46828553 -0.31041976 0 0 Z " fill="#FD641A" transform="translate(342,141)"/>
<path d="M0 0 C0 0.66 0 1.32 0 2 C0.72832031 2.10699219 1.45664062 2.21398437 2.20703125 2.32421875 C5.21135413 3.05113883 7.13004257 4.09739697 9.6875 5.8125 C10.45449219 6.31394531 11.22148437 6.81539062 12.01171875 7.33203125 C14.10479071 9.08790891 14.98253798 10.49171127 16 13 C16.66 13 17.32 13 18 13 C23.61568957 23.71332659 25.58551786 33.23698528 22 45 C21.64550781 45.69222656 21.29101562 46.38445312 20.92578125 47.09765625 C19.78120662 49.09697946 19.78120662 49.09697946 20 52 C21.35504381 53.07708611 22.71230523 54.1514555 24.078125 55.21484375 C29.64976742 60.39012949 34.35738869 67.33922503 38 74 C38 74.66 38 75.32 38 76 C38.66 76.33 39.32 76.66 40 77 C43 83.23076923 43 83.23076923 43 87 C43.66 87.33 44.32 87.66 45 88 C44.67 88.66 44.34 89.32 44 90 C44.66 90.33 45.32 90.66 46 91 C46.59765625 93.51171875 46.59765625 93.51171875 47.0625 96.6875 C47.29646484 98.24017578 47.29646484 98.24017578 47.53515625 99.82421875 C47.84737472 101.95727438 48.10187949 104.09950465 48.30078125 106.24609375 C48.71862452 109.08231866 48.71862452 109.08231866 50.8203125 110.3984375 C51.58085937 110.72070312 52.34140625 111.04296875 53.125 111.375 C61.73989669 115.68244835 66.54793672 123.18850774 70 132 C74.00312933 144.42762537 71.08797676 155.35961038 66 167 C65.34 167 64.68 167 64 167 C63.79375 167.556875 63.5875 168.11375 63.375 168.6875 C61.4824414 171.87043946 58.88455209 173.71639626 56 176 C55.34 176.66 54.68 177.32 54 178 C47.44180377 181.20557574 40.19227858 182.1516021 33 181 C30.02638914 178.78436838 28.63040207 177.26080415 27 174 C26.91921671 172.20522354 26.90331798 170.40737168 26.91821289 168.61083984 C26.9247438 167.48140961 26.93127472 166.35197937 26.93800354 165.18832397 C26.94943893 163.95828644 26.96087433 162.7282489 26.97265625 161.4609375 C26.9853213 158.85156392 26.99768083 156.24218884 27.00976562 153.6328125 C27.03331998 149.52339142 27.06168107 145.41403302 27.09594727 141.3046875 C27.46021618 102.61621158 27.46021618 102.61621158 8.67578125 69.62109375 C7.84626953 68.81865234 7.84626953 68.81865234 7 68 C6.45214844 67.43410156 5.90429688 66.86820312 5.33984375 66.28515625 C1.17518715 63.99772383 -3.46197022 64.88559851 -8.09375 65.1171875 C-13.79422301 65.28934944 -17.76625197 64.29424571 -23 62 C-24.25865856 67.2653883 -24.35989722 72.55311678 -24.60546875 77.9375 C-24.76963672 81.16424981 -24.9728456 83.91853681 -26 87 C-25.01 87.495 -25.01 87.495 -24 88 C-24.66 88 -25.32 88 -26 88 C-25.87238281 89.17175781 -25.74476563 90.34351563 -25.61328125 91.55078125 C-24.54786364 105.54872949 -24.54786364 105.54872949 -29.3972168 111.19995117 C-32.67449087 114.49983883 -35.04259439 116.81768107 -39.84130859 117.26464844 C-42.57587711 117.27254041 -45.272705 117.19165598 -48 117 C-47.10696201 96.04662953 -47.10696201 96.04662953 -46.4375 86.875 C-46.03472052 81.29805329 -45.94325831 75.78476657 -46.0625 70.1953125 C-46 68 -46 68 -45 67 C-44.78982984 64.69104731 -44.63160059 62.37726031 -44.5 60.0625 C-44.11021814 53.22043628 -44.11021814 53.22043628 -43 51 C-44.65 51 -46.3 51 -48 51 C-48.33 51.66 -48.66 52.32 -49 53 C-51.97 53 -54.94 53 -58 53 C-60.64 47.06 -63.28 41.12 -66 35 C-60.375 31.625 -60.375 31.625 -56 32 C-55.67 31.34 -55.34 30.68 -55 30 C-50.71 30 -46.42 30 -42 30 C-41.443125 27.525 -41.443125 27.525 -40.875 25 C-39.30997023 19.25663603 -36.93757411 15.39963637 -33 11 C-32.21625 10.0925 -31.4325 9.185 -30.625 8.25 C-21.61249289 0.52499391 -11.46828553 -0.31041976 0 0 Z " fill="#FC7812" transform="translate(342,141)"/>
<path d="M0 0 C3.35364089 1.59735028 6.46033437 3.49611541 9.625 5.4375 C21.30942498 12.18662634 33.10193214 13.82151943 46.375 11.37890625 C53.16195924 9.39053928 58.20334942 6.00555711 63.625 1.51171875 C66 0 66 0 68.10546875 0.05859375 C70.3844044 1.19101332 71.66574503 2.43812194 73.3125 4.375 C73.84488281 4.98085938 74.37726563 5.58671875 74.92578125 6.2109375 C75.28027344 6.80132812 75.63476562 7.39171875 76 8 C75.67 8.99 75.34 9.98 75 11 C74.79188453 12.7967989 74.5865988 14.59404988 74.40576172 16.39379883 C72.94097739 30.52880375 68.69897843 43.04885299 57.25 52.375 C47.67920938 58.90053906 36.53883283 62.15064204 25 61 C14.37721661 58.60439808 7.00893965 53.92728828 0.2265625 45.515625 C-1.06677081 43.86334101 -1.06677081 43.86334101 -3 42 C-7.90965016 32.6465789 -8.65105663 21.86195244 -6.19921875 11.671875 C-4.66288116 7.2348846 -2.94202475 3.67542347 0 0 Z " fill="#FEAB22" transform="translate(237,310)"/>
<path d="M0 0 C0.99 0.33 1.98 0.66 3 1 C3 1.66 3 2.32 3 3 C3.61875 3.2475 4.2375 3.495 4.875 3.75 C7.35068687 5.20628639 7.95125002 6.37812506 9 9 C9.66 9 10.32 9 11 9 C19.25919606 18.45776013 24.94375989 30.55965971 27.4921875 42.76953125 C27.78273375 44.96023141 27.78273375 44.96023141 29 46 C29.28393978 48.51489516 29.4481124 51.02989582 29.62109375 53.5546875 C29.8632494 56.25068778 29.8632494 56.25068778 32 59 C32.2784729 61.94230652 32.2784729 61.94230652 32.31884766 65.58276367 C32.32889328 66.24644455 32.3389389 66.91012543 32.34928894 67.59391785 C32.38015313 69.78525942 32.39716468 71.97647865 32.4140625 74.16796875 C32.43277159 75.68826859 32.45234481 77.20855801 32.4727478 78.72883606 C32.52410257 82.72856512 32.56371026 86.72832786 32.60089111 90.72821045 C32.64090988 94.8104284 32.6920119 98.89250586 32.7421875 102.97460938 C32.83898635 110.98297698 32.92337834 118.99141405 33 127 C27.69289086 128.40622396 22.45679778 128.68582704 17 128 C14.02638914 125.78436838 12.63040207 124.26080415 11 121 C10.90424407 119.2763702 10.87204482 117.54904091 10.87060547 115.82275391 C10.86745331 114.74047516 10.86430115 113.65819641 10.86105347 112.54312134 C10.8630777 111.36615692 10.86510193 110.1891925 10.8671875 108.9765625 C10.86575241 107.15902969 10.86575241 107.15902969 10.86428833 105.30477905 C10.8636063 102.73069202 10.86546217 100.15660328 10.86962891 97.58251953 C10.87493069 93.67606636 10.86970877 89.76973061 10.86328125 85.86328125 C10.86394293 83.35937475 10.86522595 80.85546832 10.8671875 78.3515625 C10.86516327 77.19484039 10.86313904 76.03811829 10.86105347 74.84634399 C10.91982369 54.08017631 10.91982369 54.08017631 13 52 C11.45461245 39.71416899 5.93028561 29.09644601 -1.8359375 19.5859375 C-3 18 -3 18 -4 15 C-4.66 15 -5.32 15 -6 15 C-6 14.34 -6 13.68 -6 13 C-8.475 12.01 -8.475 12.01 -11 11 C-9.48832294 6.76730422 -6.69447201 5.33731903 -3 3 C-1.20605554 1.37648891 -1.20605554 1.37648891 0 0 Z " fill="#FD6119" transform="translate(358,194)"/>
<path d="M0 0 C0 0.66 0 1.32 0 2 C0.72832031 2.10699219 1.45664062 2.21398437 2.20703125 2.32421875 C5.21135413 3.05113883 7.13004257 4.09739697 9.6875 5.8125 C10.45449219 6.31394531 11.22148437 6.81539062 12.01171875 7.33203125 C14.10479071 9.08790891 14.98253798 10.49171127 16 13 C16.66 13 17.32 13 18 13 C23.65521155 23.78872462 25.48742961 33.17480765 22 45 C21.10873408 47.41420574 20.11214175 49.6746127 19 52 C18.46632813 51.63648438 17.93265625 51.27296875 17.3828125 50.8984375 C-1.66574019 38.04560783 -19.25276192 32.31558711 -42 30 C-40.39573342 22.34455245 -38.23090028 16.84473042 -33 11 C-32.21625 10.0925 -31.4325 9.185 -30.625 8.25 C-21.61249289 0.52499391 -11.46828553 -0.31041976 0 0 Z " fill="#FDC11D" transform="translate(342,141)"/>
<path d="M0 0 C15.20248827 -2.23506781 29.45715179 2.68481571 42 11 C41 14 41 14 39 15 C31.63216362 15.58942691 25.71690429 15.10010967 19 12 C17.74134144 17.2653883 17.64010278 22.55311678 17.39453125 27.9375 C17.23036328 31.16424981 17.0271544 33.91853681 16 37 C16.66 37.33 17.32 37.66 18 38 C17.34 38 16.68 38 16 38 C16.12761719 39.17175781 16.25523437 40.34351563 16.38671875 41.55078125 C17.45213636 55.54872949 17.45213636 55.54872949 12.6027832 61.19995117 C9.32550913 64.49983883 6.95740561 66.81768107 2.15869141 67.26464844 C-0.57587711 67.27254041 -3.272705 67.19165598 -6 67 C-5.10696201 46.04662953 -5.10696201 46.04662953 -4.4375 36.875 C-4.03472052 31.29805329 -3.94325831 25.78476657 -4.0625 20.1953125 C-4 18 -4 18 -3 17 C-2.71340329 13.44256151 -2.5509193 9.88500847 -2.37890625 6.3203125 C-2 3 -2 3 0 0 Z " fill="#FDB921" transform="translate(300,191)"/>
<path d="M0 0 C2.63201599 2.50257258 2.991654 3.7554623 3.1171875 7.43359375 C3.04268613 8.76859129 2.96161804 10.10323383 2.875 11.4375 C2.51823792 22.50342781 6.85579323 31.25470059 11.984375 40.87890625 C15.10245635 47.39089923 15.20628925 55.85562009 13.2109375 62.7109375 C12.25681706 64.90322951 11.21496398 66.94254275 10 69 C9.525625 69.845625 9.05125 70.69125 8.5625 71.5625 C7 73 7 73 4.3125 73.25 C3.549375 73.1675 2.78625 73.085 2 73 C2.61726196 67.32644329 3.27945952 61.66138945 4 56 C3.34 55.67 2.68 55.34 2 55 C1.87625 54.278125 1.7525 53.55625 1.625 52.8125 C0.83638069 49.26371309 -0.95337572 46.97090622 -3 44 C-3 43.34 -3 42.68 -3 42 C-4.32 42 -5.64 42 -7 42 C-7.27674561 42.92111572 -7.55349121 43.84223145 -7.83862305 44.79125977 C-8.88943207 48.2865688 -9.94321987 51.78097441 -10.99780273 55.27514648 C-11.44943215 56.77295747 -11.90030749 58.27099608 -12.3503418 59.76928711 C-14.71743813 67.64814742 -17.12136809 75.51274391 -19.69140625 83.328125 C-20.08142822 84.51438477 -20.4714502 85.70064453 -20.87329102 86.92285156 C-22.22272711 90.60828872 -23.93257232 93.67734838 -26 97 C-29.17459769 106.7953047 -27.00570108 118.63337861 -22.7109375 127.73046875 C-19.71694659 133.02198745 -16.19826949 138.64923909 -11 142 C-7.63147485 142.0565109 -7.63147485 142.0565109 -4 141 C3.83423918 140.37570907 10.55595185 141.58104431 18 144 C18 144.99 18 145.98 18 147 C11.85250111 149.86807105 4.39810485 150.23497509 -2.15625 148.39453125 C-3.8001082 147.6585311 -5.40203264 146.83094303 -7 146 C-8.216875 145.67 -9.43375 145.34 -10.6875 145 C-16.23935084 143.32396956 -18.23801009 140.97158184 -21 136 C-21.81224105 134.7706622 -22.6247662 133.54151209 -23.4375 132.3125 C-28.7661407 123.65571047 -30.62365496 116.21154851 -30.375 106.0625 C-30.37371094 105.03576172 -30.37242187 104.00902344 -30.37109375 102.95117188 C-30.2822409 95.42336136 -30.2822409 95.42336136 -28 92 C-27.34 92 -26.68 92 -26 92 C-26 91.01 -26 90.02 -26 89 C-25.34 89 -24.68 89 -24 89 C-23.89042969 88.45472656 -23.78085938 87.90945312 -23.66796875 87.34765625 C-22.80804539 83.25777686 -21.82291761 79.32072368 -20.4375 75.375 C-19.46725825 72.59460573 -18.90802599 70.33318841 -18.5 67.375 C-17.92914355 63.52171894 -16.60771698 60.53697736 -15 57 C-13.37885207 52.67693884 -12.55008305 48.58402543 -12 44 C-11.34 44 -10.68 44 -10 44 C-10 42.02 -10 40.04 -10 38 C-7.6875 37.375 -7.6875 37.375 -5 37 C-3.515 37.99 -3.515 37.99 -2 39 C-2 39.66 -2 40.32 -2 41 C-1.34 41 -0.68 41 0 41 C0.81302325 42.45804169 1.62540131 43.91644315 2.4375 45.375 C2.88996094 46.18710938 3.34242188 46.99921875 3.80859375 47.8359375 C5.99515484 51.80759273 6.13455536 54.27887209 6.125 58.875 C6.12886719 60.72738281 6.12886719 60.72738281 6.1328125 62.6171875 C6.02717861 65.30774489 5.80529454 67.45629184 5 70 C5.66 70 6.32 70 7 70 C7.33 68.35 7.66 66.7 8 65 C8.66 65 9.32 65 10 65 C11.92692667 51.75237914 10.48223958 43.16299311 3.09765625 31.78125 C-1.17375644 24.84970485 -2.89889669 14.65758171 -1.125 6.75 C-0.568125 4.89375 -0.568125 4.89375 0 3 C-1.65 3.33 -3.3 3.66 -5 4 C-5.18175781 4.6290625 -5.36351562 5.258125 -5.55078125 5.90625 C-7.41972429 12.27024064 -9.45523859 18.48137679 -12.125 24.5625 C-13.13615098 27.10580082 -13.13615098 27.10580082 -13.4375 30.375 C-13.94293663 33.63225828 -14.80737629 36.08356712 -16.1796875 39.0546875 C-17.13155145 41.31196487 -17.8166299 43.58526818 -18.5 45.9375 C-20.20536426 51.80359591 -22.07913651 57.60763663 -25 63 C-28 62 -28 62 -30.25 59.1875 C-34.52706338 53.84757356 -40.33656295 51.2637553 -47 50 C-55.35983675 49.85936723 -62.69004981 53.26975082 -70 57 C-70 57.66 -70 58.32 -70 59 C-70.66 59 -71.32 59 -72 59 C-72.66 61.31 -73.32 63.62 -74 66 C-74.66 66 -75.32 66 -76 66 C-75.91280537 69.06383902 -75.80589603 72.12484051 -75.6875 75.1875 C-75.66494141 76.05181641 -75.64238281 76.91613281 -75.61914062 77.80664062 C-75.41146816 82.73414179 -74.97559327 85.89160715 -72 90 C-72 90.66 -72 91.32 -72 92 C-71.34 92 -70.68 92 -70 92 C-68.375 93.375 -68.375 93.375 -67 95 C-67 95.66 -67 96.32 -67 97 C-60.52373233 99.71585419 -53.99128319 102.10368164 -47 103 C-47.33 103.66 -47.66 104.32 -48 105 C-53.91352037 106.91593918 -58.6060144 104.49244559 -64 102 C-71.61240727 97.81578299 -76.26845579 91.19463264 -79 83 C-79.78362851 73.76437829 -79.77195888 65.67740072 -74 58 C-69.83730912 53.41847575 -66.04360268 50.62145438 -60 49 C-59.67 48.34 -59.34 47.68 -59 47 C-48.40172636 46.49128287 -39.99241233 46.79256156 -31.0625 53.0625 C-29.34128979 54.67939444 -27.66476225 56.32575193 -26 58 C-25.68289062 56.9275 -25.36578125 55.855 -25.0390625 54.75 C-21.91670009 44.23969011 -18.72126669 33.75141426 -15.47796631 23.27783203 C-15.03640752 21.84935714 -14.59665156 20.42032366 -14.15875244 18.99072266 C-13.53408288 16.95314535 -12.9026118 14.91778989 -12.26953125 12.8828125 C-11.90448486 11.70090332 -11.53943848 10.51899414 -11.16333008 9.30126953 C-7.09313098 -2.24904153 -7.09313098 -2.24904153 0 0 Z " fill="#E87B28" transform="translate(265,154)"/>
<path d="M0 0 C7.69071594 1.40456343 12.25442159 5.62089241 16.8125 11.875 C22.90566787 21.20212713 25.27782672 30.96475183 23.3125 42.125 C22.09572607 47.29419131 20.12771379 52.14550738 18 57 C17.34 57 16.68 57 16 57 C15.79375 57.556875 15.5875 58.11375 15.375 58.6875 C13.4824414 61.87043946 10.88455209 63.71639626 8 66 C7.01 66.99 7.01 66.99 6 68 C3.4375 68.6875 3.4375 68.6875 1 69 C0 68 0 68 -0.12025452 65.29820251 C-0.11803391 64.09241043 -0.11581329 62.88661835 -0.11352539 61.64428711 C-0.11367142 60.98089828 -0.11381744 60.31750946 -0.1139679 59.63401794 C-0.11326881 57.43176044 -0.10547665 55.22958655 -0.09765625 53.02734375 C-0.09579206 51.50419664 -0.09436816 49.98104893 -0.09336853 48.457901 C-0.08954346 44.44162349 -0.07971328 40.42538192 -0.06866455 36.40911865 C-0.05845019 32.31376634 -0.05387086 28.21840824 -0.04882812 24.12304688 C-0.038091 16.08201472 -0.02101472 8.04101183 0 0 Z " fill="#FC9616" transform="translate(390,251)"/>
<path d="M0 0 C2.475 0.495 2.475 0.495 5 1 C6.23104155 4.68400584 5.90767252 7.91474976 5.5625 11.75 C5.46066406 12.92046875 5.35882813 14.0909375 5.25390625 15.296875 C5.17011719 16.18890625 5.08632812 17.0809375 5 18 C5.66 18.33 6.32 18.66 7 19 C6.505 19.495 6.505 19.495 6 20 C5.98329939 21.71003031 6.03709142 23.42085878 6.12109375 25.12890625 C6.16943359 26.16337891 6.21777344 27.19785156 6.26757812 28.26367188 C6.35168945 29.8965918 6.35168945 29.8965918 6.4375 31.5625 C6.51581055 33.2012207 6.51581055 33.2012207 6.59570312 34.87304688 C6.72584148 37.58229076 6.86082054 40.29120794 7 43 C6.34 43 5.68 43 5 43 C4.979375 44.010625 4.95875 45.02125 4.9375 46.0625 C4.28937415 50.30556389 2.35528388 52.7487195 -0.76953125 55.609375 C-4.92638914 58.20104121 -9.2036366 58.37006737 -14 58 C-19.3013478 56.33105717 -21.77727276 53.32766229 -25 49 C-26.9791404 45.04171921 -26.66156177 40.1658774 -25.38671875 35.9921875 C-23.30426934 31.75389839 -20.52566521 29.46800123 -16.22265625 27.5859375 C-10.80383184 26.15742491 -5.82376253 27.37083214 -1 30 C-1.33 29.01 -1.66 28.02 -2 27 C-2.02739444 25.1028461 -1.98991388 23.20442864 -1.9140625 21.30859375 C-1.87023437 20.19935547 -1.82640625 19.09011719 -1.78125 17.94726562 C-1.7296875 16.78904297 -1.678125 15.63082031 -1.625 14.4375 C-1.55925781 12.69436523 -1.55925781 12.69436523 -1.4921875 10.91601562 C-1.12959821 2.25919643 -1.12959821 2.25919643 0 0 Z " fill="#FD4518" transform="translate(201,266)"/>
<path d="M0 0 C3.35364089 1.59735028 6.46033437 3.49611541 9.625 5.4375 C21.30942498 12.18662634 33.10193214 13.82151943 46.375 11.37890625 C53.16195924 9.39053928 58.20334942 6.00555711 63.625 1.51171875 C66 0 66 0 68.10546875 0.05859375 C70.3844044 1.19101332 71.66574503 2.43812194 73.3125 4.375 C73.84488281 4.98085938 74.37726563 5.58671875 74.92578125 6.2109375 C75.28027344 6.80132812 75.63476562 7.39171875 76 8 C75.67 8.99 75.34 9.98 75 11 C74.61496448 13.72897438 74.2601109 16.45128163 73.9375 19.1875 C73.84662109 19.93708984 73.75574219 20.68667969 73.66210938 21.45898438 C73.4386269 23.30565535 73.21894487 25.15278554 73 27 C50.27019951 29.70823155 29.49906455 25.8484117 10.82421875 12.25 C7.25360592 9.40536239 4.0510031 6.38896036 1 3 C0.34 2.34 -0.32 1.68 -1 1 C-0.67 0.67 -0.34 0.34 0 0 Z " fill="#FC9015" transform="translate(237,310)"/>
<path d="M0 0 C2 2 2 2 3.3125 5.375 C5.11618436 9.24958122 6.69189758 10.45530583 10 13 C12.28722291 16.95065776 12.018809 19.61912129 11 24 C10.01 24 9.02 24 8 24 C7.71125 23.030625 7.4225 22.06125 7.125 21.0625 C6.35785318 17.89335797 6.35785318 17.89335797 4 17 C4 16.34 4 15.68 4 15 C3.34 15 2.68 15 2 15 C2.17015625 16.11246094 2.3403125 17.22492188 2.515625 18.37109375 C3.12811243 23.3046583 2.99647752 28.10680809 2.75 33.0625 C2.72292969 33.92166016 2.69585937 34.78082031 2.66796875 35.66601562 C2.34191679 42.54991912 1.21055481 47.57378131 -3.5625 52.8125 C-7.50034716 55.84314693 -12.18521262 56.36246886 -17 57 C-17 56.34 -17 55.68 -17 55 C-17.721875 54.95875 -18.44375 54.9175 -19.1875 54.875 C-23.10402848 53.65652447 -24.98379981 51.42754032 -27 48 C-28.98062444 43.81513223 -29.58818095 40.66572845 -28.0234375 36.234375 C-26.55607028 33.48796576 -25.1435414 31.26013571 -23 29 C-19.1875 28 -19.1875 28 -16 28 C-15.67 27.34 -15.34 26.68 -15 26 C-13.51965236 26.47550561 -12.04074979 26.95551216 -10.5625 27.4375 C-9.73878906 27.70433594 -8.91507812 27.97117187 -8.06640625 28.24609375 C-6 29 -6 29 -5 30 C-4.67 20.76 -4.34 11.52 -4 2 C-2.68 1.34 -1.36 0.68 0 0 Z " fill="#E36F2C" transform="translate(273,231)"/>
<path d="M0 0 C0 0.66 0 1.32 0 2 C0.72832031 2.10699219 1.45664062 2.21398437 2.20703125 2.32421875 C5.21135413 3.05113883 7.13004257 4.09739697 9.6875 5.8125 C10.45449219 6.31394531 11.22148437 6.81539062 12.01171875 7.33203125 C14.10479071 9.08790891 14.98253798 10.49171127 16 13 C16.66 13 17.32 13 18 13 C21.86512281 20.37368447 23.82246974 26.65607779 24 35 C23.34 35 22.68 35 22 35 C21.505 35.99 21.505 35.99 21 37 C20.68289063 36.38253906 20.36578125 35.76507813 20.0390625 35.12890625 C12.67346062 21.76094925 2.31441489 15.98100224 -11.5625 10.625 C-17.65506181 9.51726149 -24.12253569 8.68637499 -29.875 11.3125 C-34.24863653 16.84386385 -37.92696718 22.96141568 -39 30 C-39.99 30 -40.98 30 -42 30 C-40.39573342 22.34455245 -38.23090028 16.84473042 -33 11 C-32.21625 10.0925 -31.4325 9.185 -30.625 8.25 C-21.61249289 0.52499391 -11.46828553 -0.31041976 0 0 Z " fill="#FDD52E" transform="translate(342,141)"/>
<path d="M0 0 C0.08725659 4.2290362 0.1404789 8.45784012 0.1875 12.6875 C0.21263672 13.88568359 0.23777344 15.08386719 0.26367188 16.31835938 C0.27333984 17.47529297 0.28300781 18.63222656 0.29296875 19.82421875 C0.3086792 20.88729248 0.32438965 21.95036621 0.34057617 23.0456543 C-0.04896775 26.42477331 -0.99204546 28.27990964 -3 31 C-6.12860495 32.56430248 -8.55602925 32.35627284 -12 32 C-14.5 29.875 -14.5 29.875 -16 27 C-16 23.49267067 -15.6345092 21.7565302 -13.375 19.0625 C-10.00996099 17.55708781 -7.5343001 18.25235959 -4 19 C-4 15.7 -4 12.4 -4 9 C-5.588125 9.309375 -7.17625 9.61875 -8.8125 9.9375 C-9.70582031 10.11152344 -10.59914063 10.28554687 -11.51953125 10.46484375 C-14.11397171 10.97741153 -14.11397171 10.97741153 -17 12 C-17.99 11.67 -18.98 11.34 -20 11 C-19.91298828 12.86205078 -19.91298828 12.86205078 -19.82421875 14.76171875 C-19.77730762 16.40360814 -19.73180891 18.04553832 -19.6875 19.6875 C-19.6246582 20.91243164 -19.6246582 20.91243164 -19.56054688 22.16210938 C-19.47085007 26.59313138 -19.5531424 28.4144366 -22.328125 32.05078125 C-25 34 -25 34 -28.0625 34.5 C-31.41685537 33.92904589 -32.84154474 33.65656032 -35 31 C-35.56641498 28.22572253 -35.56641498 25.77427747 -35 23 C-33.375 21 -33.375 21 -31 20 C-29.00039395 19.96030559 -26.99951978 19.95617491 -25 20 C-25.01160156 19.18015625 -25.02320313 18.3603125 -25.03515625 17.515625 C-25.04869141 15.89914063 -25.04869141 15.89914063 -25.0625 14.25 C-25.07990234 12.64898437 -25.07990234 12.64898437 -25.09765625 11.015625 C-24.93800218 6.08550739 -24.93800218 6.08550739 -24 4 C-22.1015625 3.0234375 -22.1015625 3.0234375 -19.625 2.375 C-18.72910156 2.14039063 -17.83320313 1.90578125 -16.91015625 1.6640625 C-3.90836653 -1.30278884 -3.90836653 -1.30278884 0 0 Z " fill="#E48427" transform="translate(425,195)"/>
<path d="M0 0 C6.8699968 2.74799872 9.01061472 6.68271089 12.16796875 13.03515625 C15.34596135 20.53999322 15.48585599 30.62983533 12.87109375 38.3203125 C10.08547023 43.65881816 7.0374595 47.67985624 2 51 C1.34 51 0.68 51 0 51 C0 34.17 0 17.34 0 0 Z " fill="#FB4D18" transform="translate(342,259)"/>
<path d="M0 0 C3.47914843 -0.0294191 6.95826417 -0.04693792 10.4375 -0.0625 C11.89833008 -0.07506836 11.89833008 -0.07506836 13.38867188 -0.08789062 C19.34778969 -0.10782078 25.09067683 0.22390482 31 1 C31 1.33 31 1.66 31 2 C29.39318359 2.09087891 29.39318359 2.09087891 27.75390625 2.18359375 C26.35675609 2.26798537 24.95962143 2.35263406 23.5625 2.4375 C22.50192383 2.49647461 22.50192383 2.49647461 21.41992188 2.55664062 C17.91309581 2.47624438 17.91309581 2.47624438 15 4 C14.76328017 6.52793394 14.5785675 9.02934966 14.4375 11.5625 C14.293125 14.016875 14.14875 16.47125 14 19 C18.95 19 23.9 19 29 19 C29 19.33 29 19.66 29 20 C24.05 20 19.1 20 14 20 C13.67 20.66 13.34 21.32 13 22 C11.35 21.67 9.7 21.34 8 21 C7.67 21.66 7.34 22.32 7 23 C4.03 23 1.06 23 -2 23 C-4.64 17.06 -7.28 11.12 -10 5 C-4.375 1.625 -4.375 1.625 0 2 C0 1.34 0 0.68 0 0 Z " fill="#FA841B" transform="translate(286,171)"/>
<path d="M0 0 C8.8770556 -0.51213782 8.8770556 -0.51213782 13 3 C15.08872513 2.63288432 15.08872513 2.63288432 17 2 C17.60856202 14.3402854 17.60856202 14.3402854 15.625 19.75 C11.7468455 23.07413243 8.08159562 24.00761858 3 24 C-0.89245276 23.10375458 -3.82904108 21.62250517 -6.1953125 18.34375 C-8.0110238 14.61418085 -8.26195794 11.89103698 -7 8 C-6.87625 7.278125 -6.7525 6.55625 -6.625 5.8125 C-6 4 -6 4 -3 2 C-2.01 2 -1.02 2 0 2 C0 1.34 0 0.68 0 0 Z " fill="#FD5919" transform="translate(255,261)"/>
<path d="M0 0 C0.66 0 1.32 0 2 0 C3.12733353 1.64489562 4.17653603 3.34362992 5.1875 5.0625 C13.13634389 17.77414811 25.4114748 26.20818087 40 30 C44.31816192 30.82115866 48.63666505 31.4727926 53 32 C52.01 32.495 52.01 32.495 51 33 C51 33.66 51 34.32 51 35 C39.83679005 38.01999883 30.69299166 37.77049214 20 33 C14.84364446 29.99789367 10.95382702 26.13826592 7.2265625 21.515625 C5.93322919 19.86334101 5.93322919 19.86334101 4 18 C1.28504747 12.02512272 -0.5847137 6.57802914 0 0 Z " fill="#FCBB49" transform="translate(230,334)"/>
<path d="M0 0 C8.51920406 2.1932635 12.69191461 5.55323131 17.3125 13 C22.65249666 22.57222805 24.32977758 32.77157539 21.73046875 43.53515625 C18.99086758 52.77947891 18.99086758 52.77947891 17 56 C14.92529297 56.62084961 14.92529297 56.62084961 13 57 C13.03927612 56.04299194 13.03927612 56.04299194 13.0793457 55.06665039 C13.83814047 33.67248008 10.13401476 18.68380389 0 0 Z " fill="#FDB527" transform="translate(391,252)"/>
<path d="M0 0 C2.475 0.495 2.475 0.495 5 1 C6.23104155 4.68400584 5.90767252 7.91474976 5.5625 11.75 C5.46066406 12.92046875 5.35882813 14.0909375 5.25390625 15.296875 C5.17011719 16.18890625 5.08632812 17.0809375 5 18 C5.66 18.33 6.32 18.66 7 19 C6.505 19.495 6.505 19.495 6 20 C5.98329939 21.71003031 6.03709142 23.42085878 6.12109375 25.12890625 C6.16943359 26.16337891 6.21777344 27.19785156 6.26757812 28.26367188 C6.35168945 29.8965918 6.35168945 29.8965918 6.4375 31.5625 C6.51581055 33.2012207 6.51581055 33.2012207 6.59570312 34.87304688 C6.72584148 37.58229076 6.86082054 40.29120794 7 43 C6.34 43 5.68 43 5 43 C4.979375 44.010625 4.95875 45.02125 4.9375 46.0625 C4.28937415 50.30556389 2.35528388 52.7487195 -0.76953125 55.609375 C-4.92638914 58.20104121 -9.2036366 58.37006737 -14 58 C-19.3013478 56.33105717 -21.77727276 53.32766229 -25 49 C-26.9791404 45.04171921 -26.66156177 40.1658774 -25.38671875 35.9921875 C-23.30426934 31.75389839 -20.52566521 29.46800123 -16.22265625 27.5859375 C-10.80383184 26.15742491 -5.82376253 27.37083214 -1 30 C-1.33 29.01 -1.66 28.02 -2 27 C-2.02739444 25.1028461 -1.98991388 23.20442864 -1.9140625 21.30859375 C-1.87023437 20.19935547 -1.82640625 19.09011719 -1.78125 17.94726562 C-1.7296875 16.78904297 -1.678125 15.63082031 -1.625 14.4375 C-1.55925781 12.69436523 -1.55925781 12.69436523 -1.4921875 10.91601562 C-1.12959821 2.25919643 -1.12959821 2.25919643 0 0 Z M-20 33 C-22.63444029 36.03973879 -23.85662899 38.01688451 -24.4375 42 C-23.75351247 46.69020019 -22.03377985 49.77238643 -19 53.375 C-14.39911159 55.86714789 -10.11291682 55.86189169 -5 55 C-2.04006688 53.64422644 -0.43142861 52.27285718 2 50 C2.97771193 47.0668642 3.13419011 45.11821006 3.125 42.0625 C3.12757813 41.20785156 3.13015625 40.35320312 3.1328125 39.47265625 C3.00930254 37.17319148 2.64420687 35.20359652 2 33 C0.02 33 -1.96 33 -4 33 C-4 32.34 -4 31.68 -4 31 C-10.15754062 29.8410978 -14.42381857 29.61055639 -20 33 Z " fill="#DD4821" transform="translate(201,266)"/>
<path d="M0 0 C2.25 0.875 2.25 0.875 4.25 1.875 C4.25 2.865 4.25 3.855 4.25 4.875 C4.91 5.205 5.57 5.535 6.25 5.875 C6.27340447 15.17798316 6.29105574 24.48095583 6.30181217 33.78396225 C6.30698059 38.10598558 6.31396509 42.42798844 6.32543945 46.75 C6.42053406 83.49544103 6.42053406 83.49544103 5.25 99.875 C4.92 99.875 4.59 99.875 4.25 99.875 C3.755 86.015 3.755 86.015 3.25 71.875 C2.92 71.875 2.59 71.875 2.25 71.875 C1.55224977 56.53377352 1.12715758 41.23279683 1.28710938 25.87426758 C1.34177695 18.48310569 0.99885281 11.22896857 0.25 3.875 C-2.9438228 4.45193752 -4.5382158 5.30376859 -6.7734375 7.640625 C-7.32 8.20136719 -7.8665625 8.76210937 -8.4296875 9.33984375 C-8.98914063 9.92894531 -9.54859375 10.51804688 -10.125 11.125 C-14.15751938 15.31768954 -18.21203694 19.22817772 -22.75 22.875 C-23.41 22.545 -24.07 22.215 -24.75 21.875 C-22.21415228 19.14037716 -19.67029561 16.41332884 -17.125 13.6875 C-16.05572266 12.53411133 -16.05572266 12.53411133 -14.96484375 11.35742188 C-4.16160063 -0.18916366 -4.16160063 -0.18916366 0 0 Z " fill="#EF7329" transform="translate(333.75,231.125)"/>
<path d="M0 0 C0 0.66 0 1.32 0 2 C0.72832031 2.10699219 1.45664062 2.21398437 2.20703125 2.32421875 C5.21135413 3.05113883 7.13004257 4.09739697 9.6875 5.8125 C10.45449219 6.31394531 11.22148437 6.81539062 12.01171875 7.33203125 C14.10479071 9.08790891 14.98253798 10.49171127 16 13 C16.66 13 17.32 13 18 13 C21.86512281 20.37368447 23.82246974 26.65607779 24 35 C23.34 35 22.68 35 22 35 C21.505 35.99 21.505 35.99 21 37 C20.94392578 36.07380859 20.94392578 36.07380859 20.88671875 35.12890625 C20.03242693 24.12361756 17.50106488 16.49272689 9 9 C6.6436409 7.60478738 4.63201197 6.82250374 2 6 C2 5.34 2 4.68 2 4 C-9.55550875 3.51740335 -19.0839855 3.34437229 -28.75 10.5625 C-34.15982501 15.58774029 -37.87037215 22.73623019 -39 30 C-39.99 30 -40.98 30 -42 30 C-40.39573342 22.34455245 -38.23090028 16.84473042 -33 11 C-32.21625 10.0925 -31.4325 9.185 -30.625 8.25 C-21.61249289 0.52499391 -11.46828553 -0.31041976 0 0 Z " fill="#F3D043" transform="translate(342,141)"/>
<path d="M0 0 C6.8699968 2.74799872 9.01061472 6.68271089 12.16796875 13.03515625 C15.34596135 20.53999322 15.48585599 30.62983533 12.87109375 38.3203125 C10.08547023 43.65881816 7.0374595 47.67985624 2 51 C1.34 51 0.68 51 0 51 C0 34.17 0 17.34 0 0 Z M2 4 C2 18.52 2 33.04 2 48 C3.485 47.505 3.485 47.505 5 47 C5 45.68 5 44.36 5 43 C5.66 43 6.32 43 7 43 C7 42.01 7 41.02 7 40 C7.66 40 8.32 40 9 40 C11.14137154 34.69009497 11.42107063 29.76704593 11.625 24.125 C11.66367187 23.24585938 11.70234375 22.36671875 11.7421875 21.4609375 C11.83581034 19.30761207 11.91896459 17.15383586 12 15 C11.34 15 10.68 15 10 15 C9.67386719 14.28972656 9.34773438 13.57945312 9.01171875 12.84765625 C8.57472656 11.92855469 8.13773437 11.00945312 7.6875 10.0625 C7.25824219 9.14597656 6.82898438 8.22945313 6.38671875 7.28515625 C5.14921339 4.69030588 5.14921339 4.69030588 2 4 Z " fill="#E05122" transform="translate(342,259)"/>
<path d="M0 0 C1.21641465 11.38699273 1.21641465 11.38699273 -1.60546875 15.12890625 C-3.67177702 16.67572989 -5.67623537 17.88131034 -8 19 C-9.3921875 19.680625 -9.3921875 19.680625 -10.8125 20.375 C-13 21 -13 21 -16 21 C-16 16.05 -16 11.1 -16 6 C-13.23307292 5.0234375 -10.46614583 4.046875 -7.69921875 3.0703125 C-4.9271957 1.97113114 -2.98653349 0 0 0 Z " fill="#FB4912" transform="translate(235,252)"/>
<path d="M0 0 C0.33 0 0.66 0 1 0 C1.06945668 9.72692737 1.12278917 19.45379591 1.15543652 29.1809206 C1.17110424 33.69744426 1.19236257 38.21379848 1.22631836 42.73022461 C1.25887255 47.08740597 1.27684468 51.44442418 1.28463173 55.80171776 C1.29018235 57.46554318 1.30102118 59.1293595 1.31719017 60.79311562 C1.33891251 63.12049404 1.34196917 65.44719501 1.34057617 67.7746582 C1.351362 68.46517776 1.36214783 69.15569733 1.3732605 69.86714172 C1.35476249 72.71624127 1.31167342 74.56403273 -0.37284851 76.92033386 C-2.81065287 78.53789365 -4.13105114 78.54646645 -7 78 C-8.86429657 76.3876354 -10.37038102 74.8267503 -12 73 C-13.34741284 71.63911303 -14.7020496 70.28535364 -16.0625 68.9375 C-17.375 67.625 -18.6875 66.3125 -20 65 C-20.71542969 64.30519531 -21.43085938 63.61039062 -22.16796875 62.89453125 C-23.9827927 61.01779433 -24.97803425 59.38458676 -26 57 C-25.01 57 -24.02 57 -23 57 C-21.64316249 58.6475884 -20.31543279 60.31916921 -19 62 C-17.28633304 63.56234076 -15.51709715 65.03756142 -13.73046875 66.515625 C-12 68 -12 68 -9.375 70.75 C-6.8546992 73.41476504 -6.8546992 73.41476504 -2 75 C-2 63.78 -2 52.56 -2 41 C-1.67 41 -1.34 41 -1 41 C-0.67 27.47 -0.34 13.94 0 0 Z " fill="#DE4318" transform="translate(337,258)"/>
<path d="M0 0 C1.65 0 3.3 0 5 0 C5 0.66 5 1.32 5 2 C7.475 2.99 7.475 2.99 10 4 C10 4.66 10 5.32 10 6 C10.66 6 11.32 6 12 6 C25.86745292 20.95345827 30.34210537 38.7587445 30.1953125 58.53515625 C30.19157537 60.02444772 30.18873171 61.51374168 30.18673706 63.0030365 C30.17915567 66.89430713 30.15955544 70.78542489 30.1373291 74.67663574 C30.11675127 78.65875176 30.10770999 82.64089284 30.09765625 86.62304688 C30.07630349 94.41543375 30.04223523 102.20769533 30 110 C29.67 110 29.34 110 29 110 C28.67 91.19 28.34 72.38 28 53 C27.67 53 27.34 53 27 53 C26.90203125 51.97261719 26.8040625 50.94523437 26.703125 49.88671875 C24.9581914 33.10772976 19.42488664 18.01941248 7 6 C4.33018911 3.83992616 2.40245455 2.60758117 -1 2 C-0.67 1.34 -0.34 0.68 0 0 Z " fill="#E76728" transform="translate(342,203)"/>
<path d="M0 0 C0.33 0 0.66 0 1 0 C1.01030746 0.81797058 1.02061493 1.63594116 1.03123474 2.47869873 C1.12922842 10.18878373 1.23174555 17.89878904 1.33933926 25.60874557 C1.39449421 29.5724692 1.44790223 33.5362003 1.49731445 37.5 C1.5450677 41.32555722 1.59741427 45.15102657 1.65294075 48.97647858 C1.6733147 50.43567974 1.69203586 51.89490494 1.70907402 53.35414886 C1.73322817 55.39862246 1.76326713 57.44293148 1.79467773 59.48730469 C1.81022202 60.65090515 1.8257663 61.81450562 1.84178162 63.0133667 C1.97455253 65.51963697 2.26982912 67.61246221 3 70 C3.66 70 4.32 70 5 70 C5 70.66 5 71.32 5 72 C9.29 72 13.58 72 18 72 C18.33 57.81 18.66 43.62 19 29 C19.33 29 19.66 29 20 29 C20.33 43.85 20.66 58.7 21 74 C15.62509806 75.34372548 10.51020837 75.69253985 5 75 C2.02638914 72.78436838 0.63040207 71.26080415 -1 68 C-1.09575593 66.2763702 -1.12795518 64.54904091 -1.12939453 62.82275391 C-1.13254669 61.74047516 -1.13569885 60.65819641 -1.13894653 59.54312134 C-1.1369223 58.36615692 -1.13489807 57.1891925 -1.1328125 55.9765625 C-1.13376923 54.76487396 -1.13472595 53.55318542 -1.13571167 52.30477905 C-1.1363937 49.73069202 -1.13453783 47.15660328 -1.13037109 44.58251953 C-1.12506931 40.67606636 -1.13029123 36.76973061 -1.13671875 32.86328125 C-1.13605707 30.35937475 -1.13477405 27.85546832 -1.1328125 25.3515625 C-1.13483673 24.19484039 -1.13686096 23.03811829 -1.13894653 21.84634399 C-1.1182042 14.51714297 -0.724327 7.29334823 0 0 Z " fill="#E34C14" transform="translate(370,247)"/>
<path d="M0 0 C2.475 0.495 2.475 0.495 5 1 C6.23104155 4.68400584 5.90767252 7.91474976 5.5625 11.75 C5.46066406 12.92046875 5.35882813 14.0909375 5.25390625 15.296875 C5.17011719 16.18890625 5.08632812 17.0809375 5 18 C5.66 18.33 6.32 18.66 7 19 C6.67 19.33 6.34 19.66 6 20 C5.98329939 21.71003031 6.03709142 23.42085878 6.12109375 25.12890625 C6.16943359 26.16337891 6.21777344 27.19785156 6.26757812 28.26367188 C6.32365234 29.35228516 6.37972656 30.44089844 6.4375 31.5625 C6.48970703 32.65498047 6.54191406 33.74746094 6.59570312 34.87304688 C6.72584148 37.58229076 6.86082054 40.29120794 7 43 C6.34 43 5.68 43 5 43 C5 44.65 5 46.3 5 48 C-1.50017704 41.49982296 0.56300983 24.64244744 0.375 15.6875 C0.33669803 14.15688182 0.29763988 12.62628237 0.2578125 11.09570312 C0.16318704 7.39730966 0.07869045 3.69877095 0 0 Z " fill="#E7531F" transform="translate(201,266)"/>
<path d="M0 0 C2.1950422 0.37845555 3.9072259 0.94943787 5.86621094 2.01708984 C8.17213524 3.0792925 9.80483544 3.30592152 12.328125 3.4140625 C13.52695312 3.47207031 13.52695312 3.47207031 14.75 3.53125 C15.9875 3.57765625 15.9875 3.57765625 17.25 3.625 C18.09046875 3.66367188 18.9309375 3.70234375 19.796875 3.7421875 C21.86423382 3.83615836 23.93208627 3.91915564 26 4 C23.32958984 6.95019531 23.32958984 6.95019531 20.36328125 7.3984375 C13.85329992 7.34842484 8.92682738 6.73545879 3 4 C1.74134144 9.2653883 1.64010278 14.55311678 1.39453125 19.9375 C1.23036328 23.16424981 1.0271544 25.91853681 0 29 C0.66 29.33 1.32 29.66 2 30 C1.34 30 0.68 30 0 30 C0.04640625 31.26457031 0.0928125 32.52914062 0.140625 33.83203125 C0.17814212 35.49216391 0.21454235 37.15232208 0.25 38.8125 C0.30027344 40.06256836 0.30027344 40.06256836 0.3515625 41.33789062 C0.36445313 42.14033203 0.37734375 42.94277344 0.390625 43.76953125 C0.4220459 44.87711792 0.4220459 44.87711792 0.45410156 46.00708008 C0 48 0 48 -2.02441406 49.7644043 C-2.67635742 50.17215088 -3.32830078 50.57989746 -4 51 C-3.86160047 46.87471501 -3.7130259 42.74985892 -3.5625 38.625 C-3.50352539 36.8615625 -3.50352539 36.8615625 -3.44335938 35.0625 C-3.40146484 33.94101563 -3.35957031 32.81953125 -3.31640625 31.6640625 C-3.27974854 30.62717285 -3.24309082 29.5902832 -3.20532227 28.52197266 C-3 26 -3 26 -2 24 C-1.85910218 22.27273078 -1.77417312 20.54071368 -1.71875 18.80859375 C-1.68136719 17.78185547 -1.64398438 16.75511719 -1.60546875 15.69726562 C-1.53503 13.52018637 -1.46471795 11.34310302 -1.39453125 9.16601562 C-1.35714844 8.14056641 -1.31976563 7.11511719 -1.28125 6.05859375 C-1.25095703 5.11298584 -1.22066406 4.16737793 -1.18945312 3.19311523 C-1 1 -1 1 0 0 Z " fill="#F0B732" transform="translate(316,199)"/>
<path d="M0 0 C0.33 0 0.66 0 1 0 C1.09895097 3.93254008 1.1715042 7.86459746 1.21972656 11.7980957 C1.24971281 13.79339014 1.30053786 15.78833582 1.3515625 17.78320312 C1.36445313 19.03681641 1.37734375 20.29042969 1.390625 21.58203125 C1.41157227 22.73936768 1.43251953 23.8967041 1.45410156 25.08911133 C1 28 1 28 -0.80566406 29.86987305 C-4.08389321 31.55822671 -6.37631336 31.51766952 -10 31 C-12.5 28.875 -12.5 28.875 -14 26 C-14 22.52786 -13.62077591 20.76976213 -11.4375 18.0625 C-7.65494042 16.41369198 -5.01261735 17.14485204 -1 18 C-0.67 18.66 -0.34 19.32 0 20 C0 13.4 0 6.8 0 0 Z " fill="#E27F21" transform="translate(423,196)"/>
<path d="M0 0 C5.86135556 0.59641864 8.02517816 3.80586038 11.70703125 8.0859375 C21 19.89608177 21 19.89608177 21 24 C21.66 24.33 22.32 24.66 23 25 C26 31.23076923 26 31.23076923 26 35 C26.66 35.33 27.32 35.66 28 36 C27.67 36.66 27.34 37.32 27 38 C27.66 38.33 28.32 38.66 29 39 C29.59765625 41.4765625 29.59765625 41.4765625 30.0625 44.625 C30.22363281 45.7078125 30.38476562 46.790625 30.55078125 47.90625 C30.69902344 48.9271875 30.84726562 49.948125 31 51 C31.13792969 51.7528125 31.27585937 52.505625 31.41796875 53.28125 C31.75 55.125 31.75 55.125 32 58 C31.34 58.66 30.68 59.32 30 60 C27.92251401 56.88377101 27.74955434 55.94603733 27.5625 52.375 C27.12060802 47.1846417 25.84018894 42.84863062 24 38 C23.63777344 36.96488281 23.27554687 35.92976563 22.90234375 34.86328125 C20.04627322 26.95628212 16.52746712 20.45445267 11.3203125 13.87890625 C10 12 10 12 10 10 C9.34 10 8.68 10 8 10 C6.63360658 8.3603279 5.3050581 6.68889872 4 5 C3.2575 4.2575 2.515 3.515 1.75 2.75 C1.1725 2.1725 0.595 1.595 0 1 C0 0.67 0 0.34 0 0 Z " fill="#E77227" transform="translate(359,193)"/>
<path d="M0 0 C0.33 0 0.66 0 1 0 C1.0278024 1.62489571 1.0467446 3.24994283 1.0625 4.875 C1.07410156 5.77992188 1.08570313 6.68484375 1.09765625 7.6171875 C1.0209705 10.27358199 0.8237734 12.80287746 0.53125 15.4375 C-0.19649819 22.31720651 -0.35337444 29.21357182 -0.5625 36.125 C-0.60581131 37.47657242 -0.64942902 38.82813506 -0.69335938 40.1796875 C-0.79857434 43.45304194 -0.90071479 46.72646125 -1 50 C-1.66 50 -2.32 50 -3 50 C-3 55.28 -3 60.56 -3 66 C-4.485 66.495 -4.485 66.495 -6 67 C-5.10696201 46.04662953 -5.10696201 46.04662953 -4.4375 36.875 C-4.03472052 31.29805329 -3.94325831 25.78476657 -4.0625 20.1953125 C-4 18 -4 18 -3 17 C-2.71340329 13.44256151 -2.5509193 9.88500847 -2.37890625 6.3203125 C-2 3 -2 3 0 0 Z " fill="#EFB635" transform="translate(300,191)"/>
<path d="M0 0 C0 0.99 0 1.98 0 3 C-6.50083467 6.00964568 -14.01311767 6.25786411 -20.84765625 4.1015625 C-22.96537845 3.15513198 -24.9932749 2.1615153 -27 1 C-26.67 0.01 -26.34 -0.98 -26 -2 C-17.69603477 -5.19526179 -8.06750698 -2.62154966 0 0 Z " fill="#FDAA29" transform="translate(283,298)"/>
<path d="M0 0 C7.09439081 1.44783486 11.49864626 4.46597729 15.703125 10.40625 C21.63526999 19.96679435 24.32347074 29.84220843 22.3125 41.125 C21.09655095 46.16017157 19.73701044 51.57248312 17 56 C14.8671875 56.77734375 14.8671875 56.77734375 13 57 C13.94226425 54.57642843 14.89486659 52.20758093 16.0703125 49.88671875 C20.53091342 40.5855398 20.56286207 29.59955263 17.3125 19.875 C15.49203706 15.53590375 13.17431656 12.43884294 10 9 C10 8.34 10 7.68 10 7 C7.78877592 5.85343936 5.670069 4.88490779 3.3125 4.0625 C2.549375 3.711875 1.78625 3.36125 1 3 C0.67 2.01 0.34 1.02 0 0 Z " fill="#EFB339" transform="translate(391,252)"/>
<path d="M0 0 C0.66 0 1.32 0 2 0 C2.06058594 1.134375 2.12117187 2.26875 2.18359375 3.4375 C2.26808494 4.95834135 2.35272851 6.47917425 2.4375 8 C2.47681641 8.74378906 2.51613281 9.48757813 2.55664062 10.25390625 C2.83661727 15.20733918 3.33510571 20.08313469 4 25 C4.66 25 5.32 25 6 25 C6.66 27.97 7.32 30.94 8 34 C8.66 34 9.32 34 10 34 C10 35.32 10 36.64 10 38 C10.66 38 11.32 38 12 38 C13.3440093 39.99284138 14.67541292 41.99419671 16 44 C16.86625 44.86625 17.7325 45.7325 18.625 46.625 C20.73810464 48.73810464 21.88809049 50.27076756 23 53 C18.35621718 51.60522424 16.32547986 49.40688656 13.375 45.625 C12.61960938 44.66851562 11.86421875 43.71203125 11.0859375 42.7265625 C10.39757812 41.82679688 9.70921875 40.92703125 9 40 C8.47921875 39.38769531 7.9584375 38.77539062 7.421875 38.14453125 C5.33406504 34.99560908 4.15894398 31.60141091 2.875 28.0625 C2.61074219 27.35931641 2.34648437 26.65613281 2.07421875 25.93164062 C-0.21794177 19.7241907 -1.13895561 14.42078021 -1.125 7.75 C-1.12757813 6.50734375 -1.13015625 5.2646875 -1.1328125 3.984375 C-1 1 -1 1 0 0 Z " fill="#E25724" transform="translate(217,258)"/>
<path d="M0 0 C0 8.58 0 17.16 0 26 C-0.33 26 -0.66 26 -1 26 C-1.12375 25.195625 -1.2475 24.39125 -1.375 23.5625 C-1.58125 22.716875 -1.7875 21.87125 -2 21 C-2.66 20.67 -3.32 20.34 -4 20 C-4.4140625 17.27734375 -4.4140625 17.27734375 -4.625 13.9375 C-4.69976562 12.83277344 -4.77453125 11.72804687 -4.8515625 10.58984375 C-4.90054687 9.73519531 -4.94953125 8.88054687 -5 8 C-6.32 8 -7.64 8 -9 8 C-9 7.34 -9 6.68 -9 6 C-7.02 6 -5.04 6 -3 6 C-3 4.68 -3 3.36 -3 2 C-3.825 2.309375 -4.65 2.61875 -5.5 2.9375 C-9.4047564 4.12287248 -12.94562957 4.5495144 -17 5 C-18.67056149 5.31323028 -20.33958925 5.63678515 -22 6 C-21.82597656 6.70511719 -21.65195312 7.41023437 -21.47265625 8.13671875 C-20.96683015 11.20093804 -21.10342727 13.73160701 -21.4375 16.8125 C-21.53933594 17.78832031 -21.64117187 18.76414063 -21.74609375 19.76953125 C-21.82988281 20.50558594 -21.91367187 21.24164063 -22 22 C-22.66 22 -23.32 22 -24 22 C-24.1954625 19.75067773 -24.38108226 17.50049858 -24.5625 15.25 C-24.66691406 13.99703125 -24.77132813 12.7440625 -24.87890625 11.453125 C-25.06349909 6.18925178 -25.06349909 6.18925178 -24 4 C-22.1015625 3.0234375 -22.1015625 3.0234375 -19.625 2.375 C-18.72910156 2.14039063 -17.83320313 1.90578125 -16.91015625 1.6640625 C-3.90836653 -1.30278884 -3.90836653 -1.30278884 0 0 Z " fill="#E69530" transform="translate(425,195)"/>
<path d="M0 0 C1.2065625 0.0309375 1.2065625 0.0309375 2.4375 0.0625 C4.63294496 6.64883488 5.73278229 12.49159946 2.9375 19.0625 C2.4425 20.0525 1.9475 21.0425 1.4375 22.0625 C-0.2125 21.7325 -1.8625 21.4025 -3.5625 21.0625 C-3.59138146 17.75001813 -3.60925799 14.43756833 -3.625 11.125 C-3.63337891 10.17947266 -3.64175781 9.23394531 -3.65039062 8.25976562 C-3.65361328 7.36064453 -3.65683594 6.46152344 -3.66015625 5.53515625 C-3.66539307 4.70250244 -3.67062988 3.86984863 -3.67602539 3.01196289 C-3.50016074 -0.00799247 -3.04049625 0.07415845 0 0 Z " fill="#E5491A" transform="translate(361.5625,273.9375)"/>
<path d="M0 0 C1.85776765 3.13498292 2.20140476 5.37471432 2 9 C2.66 9 3.32 9 4 9 C4.47050781 9.97582031 4.94101563 10.95164062 5.42578125 11.95703125 C6.05436539 13.24234508 6.68328952 14.52749267 7.3125 15.8125 C7.62123047 16.45509766 7.92996094 17.09769531 8.24804688 17.75976562 C12.06538794 25.51499536 17.20849458 28.50034055 25 32 C33.20407988 34.42367408 42.65874978 35.22433339 51 33 C51 33.66 51 34.32 51 35 C39.83679005 38.01999883 30.69299166 37.77049214 20 33 C14.84364446 29.99789367 10.95382702 26.13826592 7.2265625 21.515625 C5.93322919 19.86334101 5.93322919 19.86334101 4 18 C1.28504747 12.02512272 -0.5847137 6.57802914 0 0 Z " fill="#F0B44F" transform="translate(230,334)"/>
<path d="M0 0 C0.66 0 1.32 0 2 0 C5 5.625 5 5.625 5 9 C5.66 9.66 6.32 10.32 7 11 C6.01 11 5.02 11 4 11 C4.26103516 12.65515625 4.26103516 12.65515625 4.52734375 14.34375 C5.16406391 19.43751127 4.88555213 24.39057776 4.5625 29.5 C4.51029297 30.4178125 4.45808594 31.335625 4.40429688 32.28125 C4.2759611 34.52129261 4.14107403 36.76072975 4 39 C3.01 39 2.02 39 1 39 C0.01694905 30.42074698 -0.12065202 21.94136443 -0.0625 13.3125 C-0.05798828 12.02666016 -0.05347656 10.74082031 -0.04882812 9.41601562 C-0.03716001 6.27729347 -0.02079015 3.13867272 0 0 Z " fill="#EA6320" transform="translate(271,235)"/>
<path d="M0 0 C2.7549989 2.7549989 2.29717831 4.52253189 2.4375 8.375 C3.31181099 22.62626912 7.0285419 33.71425745 17.484375 43.72265625 C18.98949608 45.09243117 18.98949608 45.09243117 21 46 C21 46.66 21 47.32 21 48 C17.17208423 47.46834503 14.84038231 46.65102349 12 44 C10.5625 41.8125 10.5625 41.8125 9 39 C8.18775895 37.7706622 7.3752338 36.54151209 6.5625 35.3125 C5.69525161 33.88285418 4.84125217 32.44509575 4 31 C3.60039062 30.34 3.20078125 29.68 2.7890625 29 C-1.68016941 20.12492953 -0.34671978 9.66281369 0 0 Z " fill="#E35923" transform="translate(235,251)"/>
<path d="M0 0 C0.03738281 0.88042969 0.07476562 1.76085937 0.11328125 2.66796875 C0.17902344 3.82941406 0.24476563 4.99085938 0.3125 6.1875 C0.37050781 7.33605469 0.42851562 8.48460937 0.48828125 9.66796875 C1.02550649 13.16608423 2.06897589 15.0853443 4 18 C4 18.66 4 19.32 4 20 C4.66 20 5.32 20 6 20 C7.625 21.375 7.625 21.375 9 23 C9 23.66 9 24.32 9 25 C15.47626767 27.71585419 22.00871681 30.10368164 29 31 C28.67 31.66 28.34 32.32 28 33 C22.08647963 34.91593918 17.3939856 32.49244559 12 30 C4.38759273 25.81578299 -0.26845579 19.19463264 -3 11 C-3.06802967 9.27204648 -3.08495645 7.54164635 -3.0625 5.8125 C-3.05347656 4.91144531 -3.04445312 4.01039063 -3.03515625 3.08203125 C-3.02355469 2.39496094 -3.01195312 1.70789063 -3 1 C-1 0 -1 0 0 0 Z " fill="#E86928" transform="translate(189,226)"/>
<path d="M0 0 C5.61 0 11.22 0 17 0 C14.73550371 2.26449629 13.78284089 2.44739994 10.71875 3.0703125 C9.87699219 3.24433594 9.03523438 3.41835937 8.16796875 3.59765625 C7.28753906 3.77167969 6.40710938 3.94570312 5.5 4.125 C4.61957031 4.30675781 3.73914063 4.48851562 2.83203125 4.67578125 C-3.66958412 6 -3.66958412 6 -6 6 C-5.65066406 6.67546875 -5.30132812 7.3509375 -4.94140625 8.046875 C-4.48636719 8.93890625 -4.03132813 9.8309375 -3.5625 10.75 C-3.11003906 11.63171875 -2.65757812 12.5134375 -2.19140625 13.421875 C-1.16544602 15.64198566 -0.48491397 17.61444619 0 20 C1.32 20.33 2.64 20.66 4 21 C4 21.66 4 22.32 4 23 C2.02 23 0.04 23 -2 23 C-4.64 17.06 -7.28 11.12 -10 5 C-4.375 1.625 -4.375 1.625 0 2 C0 1.34 0 0.68 0 0 Z " fill="#E7862A" transform="translate(286,171)"/>
<path d="M0 0 C0.99 0.33 1.98 0.66 3 1 C3.02340447 10.30298316 3.04105574 19.60595583 3.05181217 28.90896225 C3.05698059 33.23098558 3.06396509 37.55298844 3.07543945 41.875 C3.17053406 78.62044103 3.17053406 78.62044103 2 95 C1.67 95 1.34 95 1 95 C0.86775727 85.8619637 0.73726433 76.72390441 0.60884857 67.58581352 C0.54913241 63.34007441 0.48887121 59.09434468 0.42724609 54.84863281 C0.16224506 36.56510248 -0.09234085 18.28605345 0 0 Z " fill="#E9531C" transform="translate(337,236)"/>
<path d="M0 0 C2.4375 0.8125 2.4375 0.8125 4.4375 3.8125 C4.1953125 7.16796875 4.1953125 7.16796875 3.5625 11 C3.35882813 12.27230469 3.15515625 13.54460937 2.9453125 14.85546875 C2.77773438 15.83128906 2.61015625 16.80710938 2.4375 17.8125 C0.90241972 15.37911348 0.40661696 14.14125493 0.6796875 11.234375 C0.99292969 9.91179687 0.99292969 9.91179687 1.3125 8.5625 C1.51617187 7.67046875 1.71984375 6.7784375 1.9296875 5.859375 C2.09726562 5.18390625 2.26484375 4.5084375 2.4375 3.8125 C0.7875 4.1425 -0.8625 4.4725 -2.5625 4.8125 C-2.74425781 5.4415625 -2.92601562 6.070625 -3.11328125 6.71875 C-5.22769018 13.91858348 -7.73755589 20.85879142 -10.5625 27.8125 C-12.69605169 21.41184493 -10.18141906 15.12999658 -8.1875 8.9375 C-7.97851074 8.27073242 -7.76952148 7.60396484 -7.55419922 6.91699219 C-6.11851811 2.63513625 -5.0811542 -0.37179177 0 0 Z " fill="#EA8E2A" transform="translate(262.5625,153.1875)"/>
<path d="M0 0 C0.66 0 1.32 0 2 0 C1.65701214 9.26067215 -3.12677533 16.6022406 -9.23046875 23.3984375 C-13.9221305 27.64475387 -19.61790971 31.31852256 -26 32 C-27.8125 30.5625 -27.8125 30.5625 -29 29 C-26.36 29 -23.72 29 -21 29 C-21 28.34 -21 27.68 -21 27 C-20.01 27 -19.02 27 -18 27 C-18 26.34 -18 25.68 -18 25 C-16.96875 24.505 -15.9375 24.01 -14.875 23.5 C-9.97491024 20.71133103 -5.94998926 16.21878714 -4.3359375 10.75 C-4.16964844 9.88375 -4.16964844 9.88375 -4 9 C-3.34 9 -2.68 9 -2 9 C-2 7.35 -2 5.7 -2 4 C-1.34 4 -0.68 4 0 4 C0 2.68 0 1.36 0 0 Z " fill="#EFA733" transform="translate(307,336)"/>
<path d="M0 0 C1.2065625 0.0309375 1.2065625 0.0309375 2.4375 0.0625 C2.4375 1.3825 2.4375 2.7025 2.4375 4.0625 C0.4575 4.0625 -1.5225 4.0625 -3.5625 4.0625 C-3.5625 4.7225 -3.5625 5.3825 -3.5625 6.0625 C-1.9125 5.7325 -0.2625 5.4025 1.4375 5.0625 C1.1075 5.7225 0.7775 6.3825 0.4375 7.0625 C-1.5234375 7.66015625 -1.5234375 7.66015625 -3.9375 8.125 C-6.58433151 8.64660686 -8.9942625 9.20642083 -11.5625 10.0625 C-11.5625 9.4025 -11.5625 8.7425 -11.5625 8.0625 C-13.2125 8.0625 -14.8625 8.0625 -16.5625 8.0625 C-16.5625 6.7425 -16.5625 5.4225 -16.5625 4.0625 C-13.46727312 2.6116124 -10.68374318 1.87592999 -7.3125 1.5 C-3.81258803 1.09167694 -3.19010914 0.07780754 0 0 Z " fill="#F6961F" transform="translate(419.5625,196.9375)"/>
<path d="M0 0 C0.33 0 0.66 0 1 0 C1.17576433 3.35349327 1.28132437 6.70578979 1.375 10.0625 C1.45041016 11.47692383 1.45041016 11.47692383 1.52734375 12.91992188 C1.63249721 17.94976228 1.43671681 21.15522823 -1.87109375 25.09765625 C-6.32130169 29.63114773 -10.80312119 30.27095543 -17 31 C-17 30.34 -17 29.68 -17 29 C-17.7425 28.9175 -18.485 28.835 -19.25 28.75 C-22.51221354 27.8603054 -23.80954878 26.51496251 -26 24 C-25.505 22.515 -25.505 22.515 -25 21 C-24.278125 21.61875 -23.55625 22.2375 -22.8125 22.875 C-17.4298648 26.94187993 -13.78320332 27.17265392 -7.20703125 26.6796875 C-4.880521 26.21592659 -4.880521 26.21592659 -3.82421875 24.2578125 C-3.41623047 23.14019531 -3.41623047 23.14019531 -3 22 C-2.64164062 21.27425781 -2.28328125 20.54851562 -1.9140625 19.80078125 C-0.65449841 15.94134768 -0.53741078 12.22408453 -0.375 8.1875 C-0.33632813 7.39923828 -0.29765625 6.61097656 -0.2578125 5.79882812 C-0.16411156 3.8662462 -0.08099221 1.93315624 0 0 Z " fill="#DE511D" transform="translate(273,257)"/>
<path d="M0 0 C3.43301724 0.77907956 6.75410038 1.62425447 10 3 C11.625 5.6875 11.625 5.6875 12 8 C11.360625 7.525625 10.72125 7.05125 10.0625 6.5625 C6.07818481 4.52968613 2.41505926 4.2789471 -2 4 C-2 4.66 -2 5.32 -2 6 C-3.98 6.66 -5.96 7.32 -8 8 C-9.0390717 15.02782042 -9.0390717 15.02782042 -8 22 C-8.99 22 -9.98 22 -11 22 C-12.66740551 17.84153083 -13.52961417 14.54344702 -12.04296875 10.2109375 C-8.44763989 3.62740655 -8.44763989 3.62740655 -5.03515625 2.1484375 C-3.125 1.875 -3.125 1.875 0 2 C0 1.34 0 0.68 0 0 Z " fill="#E5692C" transform="translate(257,257)"/>
<path d="M0 0 C0.33 0 0.66 0 1 0 C1 16.5 1 33 1 50 C8.51217306 46.0364249 8.51217306 46.0364249 14 41 C14.66 41 15.32 41 16 41 C14.44000455 45.21198772 11.44751381 47.27071823 8 50 C7.34 50.66 6.68 51.32 6 52 C3.4375 52.6875 3.4375 52.6875 1 53 C0 52 0 52 -0.12025452 49.90562439 C-0.1169236 48.52329369 -0.1169236 48.52329369 -0.11352539 47.11303711 C-0.11344986 46.07203354 -0.11337433 45.03102997 -0.11329651 43.95848083 C-0.10813522 42.8262056 -0.10297394 41.69393036 -0.09765625 40.52734375 C-0.0962413 39.37456436 -0.09482635 38.22178497 -0.09336853 37.03407288 C-0.08775005 33.33518936 -0.07519442 29.63636536 -0.0625 25.9375 C-0.05748738 23.43684983 -0.05292406 20.93619871 -0.04882812 18.43554688 C-0.03777462 12.29034412 -0.02101852 6.14517631 0 0 Z " fill="#FE8C1F" transform="translate(390,267)"/>
<path d="M0 0 C0.66 0 1.32 0 2 0 C2 10.23 2 20.46 2 31 C0.35 31 -1.3 31 -3 31 C-3 30.34 -3 29.68 -3 29 C-6.96 29 -10.92 29 -15 29 C-12.669626 26.669626 -11.81289219 26.61009413 -8.625 26.25 C-7.46871094 26.10304688 -7.46871094 26.10304688 -6.2890625 25.953125 C-3.68385332 26.00647399 -2.21946143 26.68251148 0 28 C-0.33 27.01 -0.66 26.02 -1 25 C-1.01583723 23.07906824 -0.96657609 21.15727672 -0.87890625 19.23828125 C-0.83056641 18.12001953 -0.78222656 17.00175781 -0.73242188 15.84960938 C-0.67634766 14.68236328 -0.62027344 13.51511719 -0.5625 12.3125 C-0.51029297 11.13365234 -0.45808594 9.95480469 -0.40429688 8.74023438 C-0.27453806 5.82655906 -0.13956868 2.91321922 0 0 Z " fill="#D35523" transform="translate(200,268)"/>
<path d="M0 0 C0.33 0 0.66 0 1 0 C1.0544452 2.20805524 1.09299283 4.41650554 1.125 6.625 C1.14820313 7.85476563 1.17140625 9.08453125 1.1953125 10.3515625 C1.0030428 13.94316041 0.30258556 16.66661175 -1 20 C-3.31 18.35 -5.62 16.7 -8 15 C-6.56357103 12.07369353 -5.03061587 9.21883071 -3.4375 6.375 C-2.25527911 4.26313955 -1.08234999 2.16469998 0 0 Z " fill="#F83B0F" transform="translate(312,295)"/>
<path d="M0 0 C0.80967438 2.91482778 1.21845993 4.46113217 0.0625 7.3125 C-0.288125 7.869375 -0.63875 8.42625 -1 9 C-3.875 9.125 -3.875 9.125 -7 9 C-7.66 8.34 -8.32 7.68 -9 7 C-8.75 3.4375 -8.75 3.4375 -8 0 C-5.13822943 -1.43088528 -3.06624227 -0.59991697 0 0 Z " fill="#FB8019" transform="translate(401,218)"/>
<path d="M0 0 C0.66 0.33 1.32 0.66 2 1 C2.1875 3.875 2.1875 3.875 2 7 C-1.22373677 9.14915785 -2.26703674 9.38286803 -6 9 C-8 7 -8 7 -8.125 3.875 C-8.08375 2.92625 -8.0425 1.9775 -8 1 C-5.26094655 -0.36952673 -3.02912668 -0.12621361 0 0 Z " fill="#FB8018" transform="translate(420,216)"/>
<path d="M0 0 C0 0.99 0 1.98 0 3 C-0.77601563 2.855625 -1.55203125 2.71125 -2.3515625 2.5625 C-10.64205134 1.13788139 -18.59786717 0.77325579 -27 1 C-26.67 0.01 -26.34 -0.98 -26 -2 C-17.69603477 -5.19526179 -8.06750698 -2.62154966 0 0 Z " fill="#EFA732" transform="translate(283,298)"/>
<path d="M0 0 C0.66 0 1.32 0 2 0 C2.07404737 4.94788314 2.12855246 9.89544524 2.16479492 14.84375 C2.17990003 16.5277264 2.20038546 18.21166335 2.22631836 19.89550781 C2.26262721 22.31324993 2.27970847 24.73047292 2.29296875 27.1484375 C2.30845261 27.9036972 2.32393646 28.65895691 2.33988953 29.43710327 C2.34057617 31.56005859 2.34057617 31.56005859 2 35 C1.01 35.66 0.02 36.32 -1 37 C-1.0246826 32.05208706 -1.04285166 27.1042098 -1.05493164 22.15625 C-1.05996653 20.47232438 -1.06679481 18.78840314 -1.07543945 17.10449219 C-1.08754196 14.68683797 -1.09323668 12.26924144 -1.09765625 9.8515625 C-1.10281754 9.0963028 -1.10797882 8.34104309 -1.11329651 7.56289673 C-1.11387171 2.22774341 -1.11387171 2.22774341 0 0 Z " fill="#D14C1C" transform="translate(286,263)"/>
<path d="M0 0 C0.66 0 1.32 0 2 0 C1.71125 0.680625 1.4225 1.36125 1.125 2.0625 C-1.69027471 9.41349508 -2.51051263 16.15532086 -3 24 C-3.33 23.34 -3.66 22.68 -4 22 C-4.66 22 -5.32 22 -6 22 C-6.48717189 14.57062873 -5.16605999 8.75965362 -2 2 C-1.34 1.34 -0.68 0.68 0 0 Z " fill="#EEAA36" transform="translate(236,312)"/>
<path d="M0 0 C0 0.66 0 1.32 0 2 C-1.65 2.66 -3.3 3.32 -5 4 C-5.01981934 5.11036621 -5.03963867 6.22073242 -5.06005859 7.36474609 C-5.13601081 11.47614602 -5.2247436 15.58718718 -5.31738281 19.69824219 C-5.35571565 21.47909473 -5.39056089 23.26002584 -5.421875 25.04101562 C-5.46743271 27.59794234 -5.52544107 30.1543261 -5.5859375 32.7109375 C-5.59748871 33.50994476 -5.60903992 34.30895203 -5.62094116 35.13217163 C-5.77225659 40.77225659 -5.77225659 40.77225659 -8 43 C-9.32 43 -10.64 43 -12 43 C-12 42.34 -12 41.68 -12 41 C-10.02 40.505 -10.02 40.505 -8 40 C-8 27.13 -8 14.26 -8 1 C-5.07175348 0.02391783 -3.04386724 -0.08226668 0 0 Z " fill="#EA5725" transform="translate(295,258)"/>
<path d="M0 0 C0.66 0.33 1.32 0.66 2 1 C1 4 1 4 -1.1875 5.5 C-6.48029976 10.20471089 -9.93304678 17.00129493 -11 24 C-11.99 24 -12.98 24 -14 24 C-11.82285098 13.61079767 -7.6354222 7.18627972 0 0 Z " fill="#F0BF35" transform="translate(314,147)"/>
<path d="M0 0 C0.33 0 0.66 0 1 0 C1.4989111 5.98693319 0.20009713 9.91955383 -3 15 C-5 17 -5 17 -7.625 17.125 C-8.40875 17.08375 -9.1925 17.0425 -10 17 C-9.67 14.03 -9.34 11.06 -9 8 C-8.34 8 -7.68 8 -7 8 C-7 9.98 -7 11.96 -7 14 C-6.34 14 -5.68 14 -5 14 C-4.67 12.35 -4.34 10.7 -4 9 C-3.34 9 -2.68 9 -2 9 C-1.855625 7.700625 -1.71125 6.40125 -1.5625 5.0625 C-1.125 1.125 -1.125 1.125 0 0 Z " fill="#E26B26" transform="translate(277,210)"/>
<path d="M0 0 C1.65 0 3.3 0 5 0 C5 0.66 5 1.32 5 2 C7.475 2.99 7.475 2.99 10 4 C10 4.66 10 5.32 10 6 C10.66 6 11.32 6 12 6 C13.5078125 7.75 13.5078125 7.75 15.125 10 C15.66382813 10.7425 16.20265625 11.485 16.7578125 12.25 C17.16773438 12.8275 17.57765625 13.405 18 14 C17.67 14.66 17.34 15.32 17 16 C16.34 16 15.68 16 15 16 C13.6510255 14.44371556 12.36935411 12.82863873 11.125 11.1875 C7.66506228 6.62906495 4.82535757 3.04024242 -1 2 C-0.67 1.34 -0.34 0.68 0 0 Z " fill="#EA7E28" transform="translate(342,203)"/>
<path d="M0 0 C0.66 0 1.32 0 2 0 C1.82526628 8.81611036 0.45666552 17.25188878 -4 25 C-6.16796875 25.86328125 -6.16796875 25.86328125 -8 26 C-7.71253906 25.28328125 -7.42507813 24.5665625 -7.12890625 23.828125 C-6.40211316 22.00736999 -5.68035136 20.1845944 -4.96484375 18.359375 C-4.62582031 17.49828125 -4.28679687 16.6371875 -3.9375 15.75 C-3.42509766 14.44289063 -3.42509766 14.44289063 -2.90234375 13.109375 C-2 11 -2 11 -1 10 C-0.76712992 8.31816052 -0.58735834 6.6287584 -0.4375 4.9375 C-0.35371094 4.01839844 -0.26992188 3.09929687 -0.18359375 2.15234375 C-0.12300781 1.44207031 -0.06242187 0.73179687 0 0 Z " fill="#EFA931" transform="translate(412,283)"/>
<path d="M0 0 C0.33 0 0.66 0 1 0 C1 9.24 1 18.48 1 28 C0.01 28.33 -0.98 28.66 -2 29 C-1.85991329 25.4789137 -1.71189018 21.95820288 -1.5625 18.4375 C-1.52318359 17.44685547 -1.48386719 16.45621094 -1.44335938 15.43554688 C-1.21827654 10.22401363 -0.85894761 5.14646762 0 0 Z " fill="#EDAB30" transform="translate(296,229)"/>
<path d="M0 0 C0.70125 0.268125 1.4025 0.53625 2.125 0.8125 C2.125 1.1425 2.125 1.4725 2.125 1.8125 C1.155625 1.956875 0.18625 2.10125 -0.8125 2.25 C-7.14774457 4.0305779 -12.15811415 9.94388774 -15.44140625 15.4296875 C-17.43327939 18.74043033 -19.84232797 20.45375509 -22.875 22.8125 C-23.535 22.4825 -24.195 22.1525 -24.875 21.8125 C-22.33915228 19.07787716 -19.79529561 16.35082884 -17.25 13.625 C-16.18072266 12.47161133 -16.18072266 12.47161133 -15.08984375 11.29492188 C-4.26200042 -0.27795655 -4.26200042 -0.27795655 0 0 Z " fill="#DD7621" transform="translate(333.875,231.1875)"/>
<path d="M0 0 C5.94592731 0.56828332 8.3049776 4.02660201 12.0390625 8.34375 C14.45930862 11.62217104 15.39279001 14.00976292 16 18 C11.125 13.375 11.125 13.375 10 10 C9.34 10 8.68 10 8 10 C6.63360658 8.3603279 5.3050581 6.68889872 4 5 C3.2575 4.2575 2.515 3.515 1.75 2.75 C1.1725 2.1725 0.595 1.595 0 1 C0 0.67 0 0.34 0 0 Z " fill="#EA822C" transform="translate(359,193)"/>
<path d="M0 0 C0.66 0 1.32 0 2 0 C2.6509259 1.24735567 3.29551669 2.49801832 3.9375 3.75 C4.29714844 4.44609375 4.65679687 5.1421875 5.02734375 5.859375 C7.00997838 10.22276366 7.1103732 13.96268029 7.0625 18.75 C7.05347656 19.92046875 7.04445313 21.0909375 7.03515625 22.296875 C7.02355469 23.18890625 7.01195312 24.0809375 7 25 C5.38799692 22.08367907 4.61067287 19.52859581 4.0625 16.25 C3.43648587 12.85950745 2.63818559 9.7708728 1.375 6.5625 C0 3 0 3 0 0 Z " fill="#E97B29" transform="translate(272,189)"/>
<path d="M0 0 C0.99 0.33 1.98 0.66 3 1 C2.01 7.6 1.02 14.2 0 21 C-0.99 20.67 -1.98 20.34 -3 20 C-3.042721 18.33388095 -3.04063832 16.66617115 -3 15 C-2.67 14.67 -2.34 14.34 -2 14 C-1.79068103 11.83703727 -1.63202931 9.6690529 -1.5 7.5 C-1.11111111 1.11111111 -1.11111111 1.11111111 0 0 Z " fill="#EA8A22" transform="translate(310,316)"/>
<path d="M0 0 C2.73789749 1.00389575 3.82231282 1.6953934 5.3125 4.25 C6.12420931 7.49683722 5.75200013 9.76639943 5 13 C4.01 13 3.02 13 2 13 C1.71125 12.030625 1.4225 11.06125 1.125 10.0625 C0.35785318 6.89335797 0.35785318 6.89335797 -2 6 C-1.67 5.01 -1.34 4.02 -1 3 C-0.34 3 0.32 3 1 3 C0.67 2.01 0.34 1.02 0 0 Z " fill="#D7682B" transform="translate(279,242)"/>
<path d="M0 0 C0.99 0.33 1.98 0.66 3 1 C2.67 8.92 2.34 16.84 2 25 C-0.20192224 21.69711664 -0.23959968 20.72537273 -0.1953125 16.89453125 C-0.18886719 15.91162109 -0.18242187 14.92871094 -0.17578125 13.91601562 C-0.15902344 12.89185547 -0.14226562 11.86769531 -0.125 10.8125 C-0.11597656 9.77673828 -0.10695313 8.74097656 -0.09765625 7.67382812 C-0.0740786 5.11565315 -0.0411703 2.55794252 0 0 Z " fill="#E6701D" transform="translate(337,236)"/>
<path d="M0 0 C2.37590142 3.70416126 2.20500286 6.92984573 2.125 11.25 C2.10695313 12.51328125 2.08890625 13.7765625 2.0703125 15.078125 C2.03550781 16.52445312 2.03550781 16.52445312 2 18 C1.01 18.33 0.02 18.66 -1 19 C-1.02690104 16.20826945 -1.04679053 13.41679652 -1.0625 10.625 C-1.07087891 9.8309375 -1.07925781 9.036875 -1.08789062 8.21875 C-1.11328125 2.2265625 -1.11328125 2.2265625 0 0 Z " fill="#E45626" transform="translate(354,274)"/>
<path d="M0 0 C0.99 0 1.98 0 3 0 C1.44000455 4.21198772 -1.55248619 6.27071823 -5 9 C-5.66 9.66 -6.32 10.32 -7 11 C-9.625 11.625 -9.625 11.625 -12 12 C-12 11.01 -12 10.02 -12 9 C-11.38511719 8.68546875 -10.77023437 8.3709375 -10.13671875 8.046875 C-9.32847656 7.61890625 -8.52023437 7.1909375 -7.6875 6.75 C-6.88699219 6.33234375 -6.08648437 5.9146875 -5.26171875 5.484375 C-2.89169088 4.11559138 -2.89169088 4.11559138 -1.39453125 1.828125 C-0.93433594 1.22484375 -0.47414063 0.6215625 0 0 Z " fill="#E98A23" transform="translate(403,308)"/>
<path d="M0 0 C0.66 0.33 1.32 0.66 2 1 C1.484375 1.969375 0.96875 2.93875 0.4375 3.9375 C-1.52610468 8.41525272 -0.88353567 12.30555147 0 17 C-0.99 17 -1.98 17 -3 17 C-5.67533632 9.63856502 -5.67533632 9.63856502 -4.01953125 5.62109375 C-2.765653 3.65773817 -1.46797523 1.80787554 0 0 Z " fill="#E25C23" transform="translate(249,262)"/>
<path d="M0 0 C0.66 0 1.32 0 2 0 C3.33333333 2.66666667 4.66666667 5.33333333 6 8 C5.01 8.33 4.02 8.66 3 9 C2.67 10.98 2.34 12.96 2 15 C1.34 15 0.68 15 0 15 C0 10.05 0 5.1 0 0 Z " fill="#F76F1F" transform="translate(271,235)"/>
<path d="M0 0 C0.66 0 1.32 0 2 0 C2.02715383 1.74991334 2.04646551 3.49994945 2.0625 5.25 C2.07410156 6.22453125 2.08570313 7.1990625 2.09765625 8.203125 C2.01195577 10.65758678 1.70706066 12.66168914 1 15 C0.34 15 -0.32 15 -1 15 C-1.02685412 12.68756208 -1.04632841 10.3750373 -1.0625 8.0625 C-1.07410156 6.77472656 -1.08570313 5.48695313 -1.09765625 4.16015625 C-1 1 -1 1 0 0 Z " fill="#E24C1F" transform="translate(217,258)"/>
<path d="M0 0 C1.65 0 3.3 0 5 0 C6.14819277 5.8685408 5.77313045 11.0885256 5 17 C4.67 17 4.34 17 4 17 C4 12.38 4 7.76 4 3 C3.34 3 2.68 3 2 3 C1.67 3.66 1.34 4.32 1 5 C0.34 5 -0.32 5 -1 5 C-0.67 3.35 -0.34 1.7 0 0 Z " fill="#DD5726" transform="translate(359,274)"/>
<path d="M0 0 C0.33 0 0.66 0 1 0 C1.56131481 6.45512034 -0.36536213 11.15439723 -3 17 C-3.66 16.34 -4.32 15.68 -5 15 C-4.609375 12.28515625 -4.609375 12.28515625 -3.75 9.0625 C-3.47671875 8.00160156 -3.2034375 6.94070312 -2.921875 5.84765625 C-2 3 -2 3 0 0 Z " fill="#F1B72D" transform="translate(364,176)"/>
<path d="M0 0 C0.33 0 0.66 0 1 0 C1.33 8.91 1.66 17.82 2 27 C1.34 27.33 0.68 27.66 0 28 C-1.08266248 24.75201257 -1.03436186 22.64103173 -0.87890625 19.23828125 C-0.83056641 18.12001953 -0.78222656 17.00175781 -0.73242188 15.84960938 C-0.67634766 14.68236328 -0.62027344 13.51511719 -0.5625 12.3125 C-0.51029297 11.13365234 -0.45808594 9.95480469 -0.40429688 8.74023438 C-0.27453806 5.82655906 -0.13956868 2.91321922 0 0 Z " fill="#EE6F29" transform="translate(269,237)"/>
<path d="M0 0 C2.02574905 3.11273635 1.0906094 5.58874082 0.46875 9.15625 C0.25605469 10.42855469 0.04335938 11.70085937 -0.17578125 13.01171875 C-0.35496094 13.98753906 -0.53414063 14.96335938 -0.71875 15.96875 C-2.25383028 13.53536348 -2.74963304 12.29750493 -2.4765625 9.390625 C-2.16332031 8.06804687 -2.16332031 8.06804687 -1.84375 6.71875 C-1.64007813 5.82671875 -1.43640625 4.9346875 -1.2265625 4.015625 C-0.97519531 3.00242188 -0.97519531 3.00242188 -0.71875 1.96875 C-3.68875 1.47375 -3.68875 1.47375 -6.71875 0.96875 C-6.71875 0.63875 -6.71875 0.30875 -6.71875 -0.03125 C-2.26091867 -1.3565512 -2.26091867 -1.3565512 0 0 Z " fill="#EE9732" transform="translate(265.71875,155.03125)"/>
<path d="M0 0 C3.57967992 1.65215996 6.77982952 3.73124352 10 6 C10 6.33 10 6.66 10 7 C7.33644766 7.39169887 5.60775627 7.40564529 3.33203125 5.88671875 C1.8489112 4.63610683 0.42045648 3.32135486 -1 2 C-0.67 1.34 -0.34 0.68 0 0 Z " fill="#F88A24" transform="translate(237,310)"/>
<path d="M0 0 C1.25 2.0625 1.25 2.0625 2 4 C1.01 4 0.02 4 -1 4 C-1 3.34 -1 2.68 -1 2 C-4.96 2 -8.92 2 -13 2 C-9.76608885 -1.23391115 -4.20070921 -2.0225637 0 0 Z " fill="#E85527" transform="translate(198,295)"/>
<path d="M0 0 C0 0.66 0 1.32 0 2 C-0.804375 2.226875 -1.60875 2.45375 -2.4375 2.6875 C-3.283125 3.120625 -4.12875 3.55375 -5 4 C-5.89386164 6.54775306 -5.89386164 6.54775306 -6 9 C-7.76462683 5.91190305 -8 4.76687864 -8 1 C-5.07175348 0.02391783 -3.04386724 -0.08226668 0 0 Z " fill="#E26224" transform="translate(295,258)"/>
<path d="M0 0 C3.43301724 0.77907956 6.75410038 1.62425447 10 3 C11.625 5.6875 11.625 5.6875 12 8 C9.5 6.625 9.5 6.625 7 5 C7 4.34 7 3.68 7 3 C4.69 3 2.38 3 0 3 C0 2.01 0 1.02 0 0 Z " fill="#DF6425" transform="translate(257,257)"/>
<path d="M0 0 C0.99 0 1.98 0 3 0 C2.34 2.97 1.68 5.94 1 9 C-0.625 7.3125 -0.625 7.3125 -2 5 C-1.1875 2.25 -1.1875 2.25 0 0 Z " fill="#E56322" transform="translate(237,246)"/>
<path d="M0 0 C0.66 0.33 1.32 0.66 2 1 C0.4169423 5.2742558 -2.50568404 7.26531794 -6 10 C-6.66 9.67 -7.32 9.34 -8 9 C-5.36 6.03 -2.72 3.06 0 0 Z " fill="#EB7B1D" transform="translate(317,244)"/>
<path d="M0 0 C6.52307692 1.35384615 6.52307692 1.35384615 8.9375 4.625 C9.288125 5.40875 9.63875 6.1925 10 7 C9.1646875 6.566875 9.1646875 6.566875 8.3125 6.125 C5.97810314 4.93364233 5.97810314 4.93364233 3.3125 4.0625 C2.549375 3.711875 1.78625 3.36125 1 3 C0.67 2.01 0.34 1.02 0 0 Z " fill="#F2B941" transform="translate(391,252)"/>
<path d="M0 0 C0.33 1.32 0.66 2.64 1 4 C0.01 4 -0.98 4 -2 4 C-2.33 5.32 -2.66 6.64 -3 8 C-3.33 6.02 -3.66 4.04 -4 2 C-2.68 1.34 -1.36 0.68 0 0 Z " fill="#DB752F" transform="translate(273,231)"/>
<path d="M0 0 C6.625 -0.125 6.625 -0.125 10 1 C10 1.99 10 2.98 10 4 C6.7 3.01 3.4 2.02 0 1 C0 0.67 0 0.34 0 0 Z " fill="#EDA63B" transform="translate(273,297)"/>
<path d="M0 0 C3 1 3 1 4.1875 3.0625 C4.455625 3.701875 4.72375 4.34125 5 5 C1 5 1 5 -2 4 C-2 3.01 -2 2.02 -2 1 C-1.34 0.67 -0.68 0.34 0 0 Z " fill="#F08222" transform="translate(257,191)"/>
<path d="M0 0 C0.66 0 1.32 0 2 0 C2 1.32 2 2.64 2 4 C2.99 4 3.98 4 5 4 C5 4.66 5 5.32 5 6 C3.35 5.67 1.7 5.34 0 5 C0 3.35 0 1.7 0 0 Z " fill="#CE4921" transform="translate(358,290)"/>
<path d="M0 0 C2 1 2 1 2 1 Z " fill="#EC9C30" transform="translate(266,372)"/>
<path d="M0 0 C2 1 2 1 2 1 Z " fill="#F8671E" transform="translate(384,324)"/>
<path d="M0 0 C2 1 2 1 2 1 Z " fill="#EE6F1E" transform="translate(406,317)"/>
<path d="M0 0 C2 1 2 1 2 1 Z " fill="#F37320" transform="translate(258,291)"/>
<path d="" fill="#E25F16" transform="translate(0,0)"/>
<path d="" fill="#F27722" transform="translate(0,0)"/>
<path d="" fill="#F17F1F" transform="translate(0,0)"/>
<path d="M0 0 C2 1 2 1 2 1 Z " fill="#E2781D" transform="translate(411,228)"/>
<path d="M0 0 C2 1 2 1 2 1 Z " fill="#EF7A21" transform="translate(278,227)"/>
<path d="M0 0 C2 1 2 1 2 1 Z " fill="#E6711D" transform="translate(277,222)"/>
<path d="" fill="#E68229" transform="translate(0,0)"/>
<path d="M0 0 C2 1 2 1 2 1 Z " fill="#F0761F" transform="translate(239,204)"/>
<path d="M0 0 C2 1 2 1 2 1 Z " fill="#F29423" transform="translate(287,199)"/>
<path d="" fill="#F49124" transform="translate(0,0)"/>
<path d="" fill="#F49624" transform="translate(0,0)"/>
<path d="" fill="#F49124" transform="translate(0,0)"/>
<path d="" fill="#F79324" transform="translate(0,0)"/>
<path d="" fill="#FB9424" transform="translate(0,0)"/>
<path d="" fill="#E78E22" transform="translate(0,0)"/>
<path d="" fill="#F48F24" transform="translate(0,0)"/>
<path d="" fill="#F89024" transform="translate(0,0)"/>
<path d="" fill="#FC9924" transform="translate(0,0)"/>
<path d="" fill="#F19424" transform="translate(0,0)"/>
<path d="" fill="#FB8E21" transform="translate(0,0)"/>
<path d="" fill="#F0982F" transform="translate(0,0)"/>
<path d="" fill="#E98C24" transform="translate(0,0)"/>
<path d="" fill="#F0AB49" transform="translate(0,0)"/>
<path d="" fill="#F37620" transform="translate(0,0)"/>
<path d="" fill="#F57720" transform="translate(0,0)"/>
<path d="" fill="#EE9E33" transform="translate(0,0)"/>
<path d="" fill="#EF7B24" transform="translate(0,0)"/>
<path d="" fill="#E57522" transform="translate(0,0)"/>
<path d="" fill="#E68429" transform="translate(0,0)"/>
<path d="" fill="#E5601B" transform="translate(0,0)"/>
<path d="" fill="#D94E17" transform="translate(0,0)"/>
<path d="" fill="#E57422" transform="translate(0,0)"/>
<path d="" fill="#FB8520" transform="translate(0,0)"/>
<path d="" fill="#EF641C" transform="translate(0,0)"/>
<path d="" fill="#EF6B1F" transform="translate(0,0)"/>
<path d="" fill="#EF641C" transform="translate(0,0)"/>
<path d="" fill="#FA8320" transform="translate(0,0)"/>
<path d="" fill="#DD501F" transform="translate(0,0)"/>
<path d="" fill="#F3671F" transform="translate(0,0)"/>
<path d="" fill="#ED641E" transform="translate(0,0)"/>
<path d="" fill="#F06B26" transform="translate(0,0)"/>
<path d="" fill="#F76D26" transform="translate(0,0)"/>
<path d="" fill="#EC6325" transform="translate(0,0)"/>
<path d="" fill="#E3631E" transform="translate(0,0)"/>
<path d="" fill="#EE621E" transform="translate(0,0)"/>
<path d="" fill="#CB4717" transform="translate(0,0)"/>
<path d="" fill="#FA6F21" transform="translate(0,0)"/>
<path d="" fill="#DD4C21" transform="translate(0,0)"/>
<path d="" fill="#DB4B1C" transform="translate(0,0)"/>
<path d="" fill="#EF771F" transform="translate(0,0)"/>
<path d="" fill="#EF7623" transform="translate(0,0)"/>
<path d="" fill="#EE621E" transform="translate(0,0)"/>
<path d="" fill="#DE4D25" transform="translate(0,0)"/>
<path d="" fill="#E05422" transform="translate(0,0)"/>
<path d="" fill="#E47122" transform="translate(0,0)"/>
<path d="" fill="#F8761E" transform="translate(0,0)"/>
<path d="" fill="#EB8723" transform="translate(0,0)"/>
<path d="" fill="#D84B1F" transform="translate(0,0)"/>
<path d="" fill="#E14E21" transform="translate(0,0)"/>
<path d="" fill="#F05423" transform="translate(0,0)"/>
<path d="" fill="#F05323" transform="translate(0,0)"/>
<path d="" fill="#F05323" transform="translate(0,0)"/>
<path d="" fill="#F58526" transform="translate(0,0)"/>
<path d="" fill="#EE5322" transform="translate(0,0)"/>
<path d="" fill="#EB8B24" transform="translate(0,0)"/>
<path d="" fill="#E14F20" transform="translate(0,0)"/>
<path d="" fill="#E15822" transform="translate(0,0)"/>
<path d="" fill="#E04F20" transform="translate(0,0)"/>
<path d="" fill="#F96F1F" transform="translate(0,0)"/>
<path d="" fill="#EA8424" transform="translate(0,0)"/>
<path d="" fill="#DA5815" transform="translate(0,0)"/>
<path d="" fill="#EE721F" transform="translate(0,0)"/>
<path d="" fill="#F05B1F" transform="translate(0,0)"/>
<path d="" fill="#DD5526" transform="translate(0,0)"/>
<path d="" fill="#E56B1E" transform="translate(0,0)"/>
<path d="" fill="#DA5825" transform="translate(0,0)"/>
<path d="" fill="#F78122" transform="translate(0,0)"/>
<path d="" fill="#DD5217" transform="translate(0,0)"/>
<path d="" fill="#E35C20" transform="translate(0,0)"/>
<path d="" fill="#F76B23" transform="translate(0,0)"/>
<path d="" fill="#F96B23" transform="translate(0,0)"/>
<path d="" fill="#EE6422" transform="translate(0,0)"/>
<path d="" fill="#FA7622" transform="translate(0,0)"/>
<path d="" fill="#E46620" transform="translate(0,0)"/>
<path d="" fill="#E36527" transform="translate(0,0)"/>
<path d="" fill="#DC6123" transform="translate(0,0)"/>
<path d="" fill="#E26426" transform="translate(0,0)"/>
<path d="" fill="#DF6227" transform="translate(0,0)"/>
<path d="" fill="#EB641C" transform="translate(0,0)"/>
<path d="" fill="#E5671D" transform="translate(0,0)"/>
<path d="" fill="#DB5311" transform="translate(0,0)"/>
<path d="" fill="#EB671B" transform="translate(0,0)"/>
<path d="" fill="#DB6123" transform="translate(0,0)"/>
<path d="" fill="#E56C1E" transform="translate(0,0)"/>
<path d="" fill="#E45E1F" transform="translate(0,0)"/>
<path d="" fill="#D95A19" transform="translate(0,0)"/>
<path d="" fill="#EF6A20" transform="translate(0,0)"/>
<path d="" fill="#EE6220" transform="translate(0,0)"/>
<path d="" fill="#E45E1E" transform="translate(0,0)"/>
<path d="" fill="#EF6B21" transform="translate(0,0)"/>
<path d="" fill="#F66E22" transform="translate(0,0)"/>
<path d="" fill="#E66B2B" transform="translate(0,0)"/>
<path d="" fill="#EF7220" transform="translate(0,0)"/>
<path d="" fill="#FA7426" transform="translate(0,0)"/>
<path d="" fill="#E35822" transform="translate(0,0)"/>
<path d="" fill="#EF7220" transform="translate(0,0)"/>
<path d="" fill="#F46F21" transform="translate(0,0)"/>
<path d="" fill="#EDA33A" transform="translate(0,0)"/>
<path d="" fill="#FA7522" transform="translate(0,0)"/>
<path d="" fill="#E36F20" transform="translate(0,0)"/>
<path d="" fill="#DF6324" transform="translate(0,0)"/>
<path d="" fill="#DB702A" transform="translate(0,0)"/>
<path d="" fill="#DC6C22" transform="translate(0,0)"/>
<path d="" fill="#D96419" transform="translate(0,0)"/>
<path d="" fill="#F47023" transform="translate(0,0)"/>
<path d="" fill="#E16D2A" transform="translate(0,0)"/>
<path d="" fill="#EE7521" transform="translate(0,0)"/>
<path d="" fill="#F97C21" transform="translate(0,0)"/>
<path d="" fill="#EE7521" transform="translate(0,0)"/>
<path d="" fill="#EF7B20" transform="translate(0,0)"/>
<path d="" fill="#F37A20" transform="translate(0,0)"/>
<path d="" fill="#F98220" transform="translate(0,0)"/>
<path d="" fill="#EF7621" transform="translate(0,0)"/>
<path d="" fill="#EE7B21" transform="translate(0,0)"/>
<path d="" fill="#E07124" transform="translate(0,0)"/>
<path d="" fill="#E17626" transform="translate(0,0)"/>
<path d="" fill="#E37721" transform="translate(0,0)"/>
<path d="" fill="#FA8D21" transform="translate(0,0)"/>
<path d="" fill="#EF7721" transform="translate(0,0)"/>
<path d="" fill="#E4781F" transform="translate(0,0)"/>
<path d="" fill="#E87420" transform="translate(0,0)"/>
<path d="" fill="#EE7521" transform="translate(0,0)"/>
<path d="" fill="#E47020" transform="translate(0,0)"/>
<path d="" fill="#E37C25" transform="translate(0,0)"/>
<path d="" fill="#E6822E" transform="translate(0,0)"/>
<path d="" fill="#E57320" transform="translate(0,0)"/>
<path d="" fill="#E57A1F" transform="translate(0,0)"/>
<path d="" fill="#F4831E" transform="translate(0,0)"/>
<path d="" fill="#EF9722" transform="translate(0,0)"/>
<path d="" fill="#F38322" transform="translate(0,0)"/>
<path d="" fill="#E27C23" transform="translate(0,0)"/>
<path d="" fill="#EF7C21" transform="translate(0,0)"/>
<path d="" fill="#F88823" transform="translate(0,0)"/>
<path d="" fill="#E5761B" transform="translate(0,0)"/>
<path d="" fill="#EBA52E" transform="translate(0,0)"/>
<path d="" fill="#FB7F21" transform="translate(0,0)"/>
<path d="" fill="#E66A1D" transform="translate(0,0)"/>
<path d="" fill="#F98222" transform="translate(0,0)"/>
<path d="" fill="#EFAE37" transform="translate(0,0)"/>
<path d="" fill="#F08D21" transform="translate(0,0)"/>
<path d="" fill="#E5871F" transform="translate(0,0)"/>
<path d="" fill="#E57B20" transform="translate(0,0)"/>
<path d="" fill="#E57626" transform="translate(0,0)"/>
<path d="" fill="#E57917" transform="translate(0,0)"/>
<path d="" fill="#E38023" transform="translate(0,0)"/>
<path d="" fill="#EE8A23" transform="translate(0,0)"/>
<path d="" fill="#E6661E" transform="translate(0,0)"/>
<path d="" fill="#F18C24" transform="translate(0,0)"/>
<path d="" fill="#E6822A" transform="translate(0,0)"/>
<path d="" fill="#EA7A2B" transform="translate(0,0)"/>
<path d="" fill="#EE8A24" transform="translate(0,0)"/>
<path d="" fill="#F28523" transform="translate(0,0)"/>
<path d="" fill="#EA7C2E" transform="translate(0,0)"/>
<path d="" fill="#E98E1F" transform="translate(0,0)"/>
<path d="" fill="#FA8E25" transform="translate(0,0)"/>
<path d="" fill="#E46E21" transform="translate(0,0)"/>
<path d="" fill="#EA882B" transform="translate(0,0)"/>
<path d="" fill="#E46F21" transform="translate(0,0)"/>
<path d="" fill="#E46F21" transform="translate(0,0)"/>
<path d="" fill="#E6691E" transform="translate(0,0)"/>
<path d="" fill="#F29323" transform="translate(0,0)"/>
<path d="" fill="#ED882D" transform="translate(0,0)"/>
<path d="" fill="#EB7927" transform="translate(0,0)"/>
<path d="" fill="#F29323" transform="translate(0,0)"/>
<path d="" fill="#EF9023" transform="translate(0,0)"/>
<path d="" fill="#E68429" transform="translate(0,0)"/>
<path d="" fill="#FA9E22" transform="translate(0,0)"/>
<path d="" fill="#E08B31" transform="translate(0,0)"/>
<path d="" fill="#E48723" transform="translate(0,0)"/>
<path d="" fill="#E38624" transform="translate(0,0)"/>
<path d="" fill="#FA9422" transform="translate(0,0)"/>
<path d="" fill="#E47422" transform="translate(0,0)"/>
<path d="" fill="#EF9923" transform="translate(0,0)"/>
<path d="" fill="#E47B22" transform="translate(0,0)"/>
<path d="" fill="#FAA220" transform="translate(0,0)"/>
<path d="" fill="#F89723" transform="translate(0,0)"/>
<path d="" fill="#E47722" transform="translate(0,0)"/>
<path d="" fill="#FAA422" transform="translate(0,0)"/>
<path d="" fill="#EF9023" transform="translate(0,0)"/>
<path d="" fill="#EF9023" transform="translate(0,0)"/>
<path d="" fill="#E58A21" transform="translate(0,0)"/>
<path d="" fill="#EF841D" transform="translate(0,0)"/>
<path d="" fill="#F28423" transform="translate(0,0)"/>
<path d="" fill="#EF9422" transform="translate(0,0)"/>
<path d="" fill="#F18318" transform="translate(0,0)"/>
<path d="" fill="#E58C21" transform="translate(0,0)"/>
<path d="" fill="#EEAF30" transform="translate(0,0)"/>
<path d="" fill="#E58C21" transform="translate(0,0)"/>
<path d="" fill="#E47F22" transform="translate(0,0)"/>
<path d="" fill="#E69B20" transform="translate(0,0)"/>
<path d="" fill="#E8942F" transform="translate(0,0)"/>
<path d="" fill="#F0BA36" transform="translate(0,0)"/>
<path d="" fill="#F1BA36" transform="translate(0,0)"/>
<path d="" fill="#FCB82C" transform="translate(0,0)"/>
<path d="" fill="#E79C1F" transform="translate(0,0)"/>
<path d="" fill="#F1B731" transform="translate(0,0)"/>
<path d="" fill="#F1A120" transform="translate(0,0)"/>
<path d="" fill="#E79B1E" transform="translate(0,0)"/>
<path d="" fill="#E79B1F" transform="translate(0,0)"/>
<path d="" fill="#E69B1F" transform="translate(0,0)"/>
</svg>
